<?xml version="1.0" encoding="UTF-8"?>
<svg id="Layer_1" data-name="Layer 1" xmlns="http://www.w3.org/2000/svg" xmlns:xlink="http://www.w3.org/1999/xlink" viewBox="0 0 603.54 937.31">
  <defs>
    <style>
      .cls-1 {
        clip-path: url(#clippath);
      }

      .cls-2 {
        fill: none;
      }

      .cls-2, .cls-3, .cls-4, .cls-5, .cls-6, .cls-7, .cls-8, .cls-9, .cls-10 {
        stroke-width: 0px;
      }

      .cls-3 {
        fill: #55565a;
        opacity: .3;
      }

      .cls-3, .cls-11 {
        isolation: isolate;
      }

      .cls-4 {
        fill: #62a744;
      }

      .cls-5 {
        fill: #9aca3c;
      }

      .cls-6 {
        fill: #4197b5;
      }

      .cls-7 {
        fill: #144734;
      }

      .cls-8 {
        fill: #134733;
      }

      .cls-9 {
        fill: #d1d3d4;
      }

      .cls-10 {
        fill: #fff;
      }
    </style>
    <clipPath id="clippath">
      <path class="cls-2" d="m169.83,478.6h158.9v172.9s-10.8,15.9-10,30.1l-.5,17.6h-5.5v14.7h23.6v42.1h-7.7v23.5h-158.3v-78h12.5l1.4-21.6s2.2-14.9-13.9-31.1l-.5-170.2Z"/>
    </clipPath>
  </defs>
  <g id="landmarks-conference">
    <polygon id="GreenRoom" class="cls-4" points="104.53 650.5 170.33 650.5 170.33 708.7 155.03 708.7 155.03 776.1 120.33 776.1 120.33 729.8 104.53 729.8 104.53 650.5"/>
    <rect id="BoardRoom" class="cls-4" x="336.33" y="321.5" width="51.8" height="75.4"/>
  </g>
  <g id="landmarks-programs">
    <polygon id="StudentAdvocacy" class="cls-5" points="275.13 390.5 335.83 390.5 335.83 396.8 354.13 396.8 354.13 412.8 350.83 412.8 350.83 436.2 275.13 436.2 275.13 390.5"/>
    <polygon id="RecoveryCenter" class="cls-5" points="414.33 389 450.13 389 450.13 475.4 420.13 475.4 420.13 468.1 408.53 468.1 408.53 450 414.33 450 414.33 389"/>
    <polyline id="LegalServices" class="cls-5" points="273.25 436.2 210.56 436.2 210.56 390.5 273.25 390.5"/>
    <path id="EmeraldMediaGroup" class="cls-5" d="m465.74,113.67h-87.13v169.08h70.66v83.21h58.54v-81.53h-42.07s-1.67-172.43,0-170.76Z"/>
    <polygon id="UssAdmin" class="cls-5" points="379.02 2.62 463.9 2.62 463.9 44.85 430.87 44.85 415.82 59.9 415.82 77.46 397.42 77.46 397.42 111.75 379.02 111.75 379.02 2.62"/>
  </g>
  <g id="landmarks-restrooms">
    <polygon id="Floor3AllGenderRestroom3" class="cls-6" points="182.33 427.6 197.83 427.6 197.83 443.2 170.33 443.2 170.33 435.6 180.23 435.6 180.23 427.4 182.33 427.6"/>
    <rect id="Floor3AllGenderRestroom2" class="cls-6" x="397.53" y="91.4" width="33.3" height="21.1"/>
    <polygon id="Floor3MensRestroom" class="cls-6" points="295.53 450 334.33 450 334.33 475.4 328.33 475.4 328.33 478.6 286.13 478.6 286.13 457.6 295.53 457.6 295.53 450"/>
    <rect id="Floor3WomensRestroom" class="cls-6" x="413.33" y="334.4" width="19" height="40.4"/>
    <rect id="Floor3AllGenderRestroom1" class="cls-6" x="104.53" y="729.8" width="17" height="46.5"/>
  </g>
  <g id="nopointer-base">
    <g class="cls-1">
      <g>
        <rect class="cls-3" x="184.61" y="549.8" width="2.5" height="403.7" transform="translate(-477.06 351.58) rotate(-45)"/>
        <rect class="cls-3" x="195.06" y="539.15" width="2.5" height="403.7" transform="translate(-466.47 355.85) rotate(-45)"/>
        <rect class="cls-3" x="205.68" y="528.67" width="2.5" height="403.7" transform="translate(-455.95 360.29) rotate(-45)"/>
        <rect class="cls-3" x="216.2" y="518.09" width="2.5" height="403.7" transform="translate(-445.38 364.63) rotate(-45)"/>
        <rect class="cls-3" x="142.36" y="591.85" width="2.5" height="403.7" transform="translate(-519.17 334.02) rotate(-45)"/>
        <rect class="cls-3" x="152.98" y="581.37" width="2.5" height="403.7" transform="translate(-508.65 338.46) rotate(-45)"/>
        <rect class="cls-3" x="163.5" y="570.79" width="2.5" height="403.7" transform="translate(-498.08 342.8) rotate(-45)"/>
        <rect class="cls-3" x="174.09" y="560.38" width="2.5" height="403.7" transform="translate(-487.62 347.24) rotate(-45)"/>
        <rect class="cls-3" x="268.9" y="465.38" width="2.5" height="403.7" transform="translate(-392.68 386.45) rotate(-45)"/>
        <rect class="cls-3" x="279.49" y="454.97" width="2.5" height="403.7" transform="translate(-382.22 390.89) rotate(-45)"/>
        <rect class="cls-3" x="290.01" y="444.39" width="2.5" height="403.7" transform="translate(-371.65 395.23) rotate(-45)"/>
        <rect class="cls-3" x="300.55" y="433.75" width="2.5" height="403.7" transform="translate(-361.04 399.57) rotate(-45)"/>
        <rect class="cls-3" x="311.07" y="423.27" width="2.5" height="403.7" transform="translate(-350.55 403.94) rotate(-45)"/>
        <rect class="cls-3" x="321.59" y="412.69" width="2.5" height="403.7" transform="translate(-339.98 408.28) rotate(-45)"/>
        <rect class="cls-3" x="332.18" y="402.28" width="2.5" height="403.7" transform="translate(-329.52 412.72) rotate(-45)"/>
        <rect class="cls-3" x="342.7" y="391.7" width="2.5" height="403.7" transform="translate(-318.96 417.06) rotate(-45)"/>
        <rect class="cls-3" x="226.79" y="507.68" width="2.5" height="403.7" transform="translate(-434.92 369.07) rotate(-45)"/>
        <rect class="cls-3" x="237.31" y="497.1" width="2.5" height="403.7" transform="translate(-424.36 373.41) rotate(-45)"/>
        <rect class="cls-3" x="247.86" y="486.44" width="2.5" height="403.7" transform="translate(-413.73 377.74) rotate(-45)"/>
        <rect class="cls-3" x="258.39" y="475.97" width="2.5" height="403.7" transform="translate(-403.24 382.12) rotate(-45)"/>
        <rect class="cls-3" x="384.89" y="349.58" width="2.5" height="403.7" transform="translate(-276.82 434.55) rotate(-45)"/>
        <rect class="cls-3" x="395.41" y="339" width="2.5" height="403.7" transform="translate(-266.26 438.89) rotate(-45)"/>
        <rect class="cls-3" x="406.03" y="328.42" width="2.5" height="403.7" transform="translate(-255.66 443.3) rotate(-45)"/>
        <rect class="cls-3" x="416.48" y="317.86" width="2.5" height="403.7" transform="translate(-245.14 447.6) rotate(-45)"/>
        <rect class="cls-3" x="426.99" y="307.28" width="2.5" height="403.7" transform="translate(-234.58 451.93) rotate(-45)"/>
        <rect class="cls-3" x="437.58" y="296.87" width="2.5" height="403.7" transform="translate(-224.11 456.37) rotate(-45)"/>
        <rect class="cls-3" x="448.1" y="286.29" width="2.5" height="403.7" transform="translate(-213.55 460.71) rotate(-45)"/>
        <rect class="cls-3" x="458.67" y="275.61" width="2.5" height="403.7" transform="translate(-202.9 465.06) rotate(-45)"/>
        <rect class="cls-3" x="353.25" y="381.05" width="2.5" height="403.7" transform="translate(-308.34 421.4) rotate(-45)"/>
        <rect class="cls-3" x="363.78" y="370.57" width="2.5" height="403.7" transform="translate(-297.84 425.77) rotate(-45)"/>
        <rect class="cls-3" x="374.3" y="359.99" width="2.5" height="403.7" transform="translate(-287.28 430.11) rotate(-45)"/>
      </g>
    </g>
    <rect class="cls-9" x="334.33" y="449.5" width="17.6" height="25.9"/>
    <rect class="cls-9" x="450.03" y="366.3" width="57.9" height="13.4"/>
    <rect class="cls-9" x="413.53" y="318.7" width="19.4" height="15.7"/>
    <rect class="cls-9" x="450.13" y="318.7" width="8.6" height="14.4"/>
    <rect class="cls-9" x="430.83" y="100.4" width="11.7" height="12.1"/>
    <rect class="cls-9" x="447.53" y="76.6" width="17.2" height="8.9"/>
    <rect class="cls-9" x="465.33" y="48.8" width="8.6" height="36.7"/>
    <rect class="cls-9" x="464.13" y="99.7" width="62.1" height="6.4"/>
    <rect class="cls-9" x="413.53" y="375.1" width="8.2" height="4.5"/>
    <rect class="cls-9" x="387.83" y="320.6" width="12.8" height="11.6"/>
    <rect class="cls-9" x="388.33" y="331.4" width="7.4" height="48.3"/>
    <polygon class="cls-9" points="359.53 713.3 312.83 714 312.83 699.3 318.13 699.3 318.13 689.3 341.13 689.3 341.13 699.9 359.83 699.9 359.53 713.3"/>
    <path class="cls-9" d="m170.33,701.5h12.5l1.4-21.6s-3.3-23.4-13.9-30v51.6Z"/>
    <path class="cls-9" d="m318.13,689.3h15.2v-38.5l-4.7.7c-.1,0-12.8,18.5-10.5,37.8Z"/>
    <polygon class="cls-9" points="399.03 450 408.53 450 408.53 468.1 420.13 468.1 420.13 475.5 399.03 475.5 399.03 450"/>
    <rect class="cls-9" x="328.33" y="475.4" width="25.9" height="114.6"/>
    <path class="cls-7" d="m105.83,653.6h-2.7v-12.7c0-.7.6-1.3,1.3-1.3h65.3c.7,0,1.3.6,1.3,1.3v12h-2.7v-10.7h-62.6v11.4h.1Z"/>
    <rect class="cls-7" x="104.43" y="707.4" width="27" height="2.7"/>
    <path class="cls-7" d="m156.33,765.5h-2.7v-55.5h-11.5v-2.6h12.8c.7,0,1.3.6,1.3,1.3v56.8h.1Z"/>
    <rect class="cls-7" x="163.23" y="707.4" width="6.6" height="2.7"/>
    <rect class="cls-7" x="104.43" y="728.5" width="27" height="2.7"/>
    <rect class="cls-7" x="104.43" y="743.3" width="15.8" height="2.7"/>
    <path class="cls-7" d="m171.13,646h-2.7v-255.5c0-.7.6-1.3,1.3-1.3h164.7v-68.5c0-.7.6-1.3,1.3-1.3h40.2V112.5c0-.7.6-1.3,1.3-1.3h76.2v2.7h-74.9v206.9c0,.7-.6,1.3-1.3,1.3h-40.2v68.5c0,.7-.6,1.3-1.3,1.3h-164.6v254.1h0Z"/>
    <path class="cls-7" d="m372.53,756.7h-25.4c-.7,0-1.3-.6-1.3-1.3v-22.8c0-.7.6-1.3,1.3-1.3h4.2v2.7h-2.9v20.1h24.1v2.6h0Z"/>
    <rect class="cls-7" x="367.13" y="731.3" width="4.7" height="2.7"/>
    <rect class="cls-7" x="304.53" y="712" width="34.2" height="2.7"/>
    <path class="cls-7" d="m313.63,713.3h-2.7v-14.7c0-.7.6-1.3,1.3-1.3h4.2v-8c0-.7.6-1.3,1.3-1.3h23.3c.7,0,1.3.6,1.3,1.3v8.7h17.4c.7,0,1.3.6,1.3,1.3v5.1h-2.7v-3.8h-17.4c-.7,0-1.3-.6-1.3-1.3v-8.7h-20.6v8c0,.7-.6,1.3-1.3,1.3h-4.2v13.4h.1Z"/>
    <rect class="cls-7" x="332.13" y="662.2" width="2.7" height="27.1"/>
    <rect class="cls-7" x="358.43" y="654.1" width="2.7" height="47.2"/>
    <path class="cls-7" d="m329.63,593h-2.7v-117.6c0-.7.6-1.3,1.3-1.3h25.8c.7,0,1.3.6,1.3,1.3v114.6h-2.7v-113.3h-23.1v116.3h.1Z"/>
    <rect class="cls-7" x="372.73" y="468.1" width="2.7" height="7.3"/>
    <path class="cls-7" d="m400.33,475.4h-2.7v-24.1h-22.2v7.5h-2.7v-8.8c0-.7.6-1.3,1.3-1.3h24.9c.7,0,1.3.6,1.3,1.3v25.4h.1Z"/>
    <rect class="cls-7" x="395.53" y="448.7" width="13.7" height="2.7"/>
    <path class="cls-7" d="m398.83,112.5h-2.7v-21.1c0-.7.6-1.3,1.3-1.3h22.5v2.7h-21.2v19.7h.1Z"/>
    <path class="cls-7" d="m378.83,112.5h-2.7V1.3c0-.7.6-1.3,1.3-1.3h87.5c.7,0,1.3.6,1.3,1.3v44.5c0,.7-.6,1.3-1.3,1.3h-33.6l-13.7,13.4v16.9c0,.7-.6,1.3-1.3,1.3h-9.2v-2.7h7.9v-16.2c0-.4.1-.7.4-1l14.5-14.2c.2-.2.6-.4.9-.4h32.9V2.4h-84.8v110.1h-.1Z"/>
    <path class="cls-7" d="m465.03,77.9h-38.9v-2.7h37.6v-31.7h2.7v33c-.1.8-.7,1.4-1.4,1.4Z"/>
    <path class="cls-7" d="m465.43,113.9h-2.7v-7.9c0-.7.6-1.3,1.3-1.3h60.7v-55.3h-59.8v-2.7h61.1c.7,0,1.3.6,1.3,1.3v58c0,.7-.6,1.3-1.3,1.3h-60.7v6.6h.1Z"/>
    <path class="cls-7" d="m508.33,86.8h-43.3c-.7,0-1.3-.6-1.3-1.3v-11.9h2.7v10.6h40.6v-9.8h2.7v11.1c-.1.7-.7,1.3-1.4,1.3Z"/>
    <rect class="cls-7" x="506.93" y="48" width="2.7" height="14.5"/>
    <rect class="cls-7" x="472.63" y="48" width="2.7" height="36.7"/>
    <rect class="cls-7" x="429.33" y="60.6" width="24.2" height="2.7"/>
    <path class="cls-7" d="m465.53,86.8h-17.6c-.7,0-1.3-.6-1.3-1.3v-8.9h2.7v7.6h16.3v2.6h-.1Z"/>
    <path class="cls-7" d="m443.83,111.6h-2.7v-9.9h-10.4v-2.7h11.7c.7,0,1.3.6,1.3,1.3v11.3h.1Z"/>
    <path class="cls-7" d="m465.43,108.2h-2.7v-8.5c0-.7.6-1.3,1.3-1.3h62v2.7h-60.7v7.1h.1Z"/>
    <path class="cls-7" d="m451.43,382.3h-2.7v-63.6c0-.7.6-1.3,1.3-1.3h8.5v2.7h-7.2v62.2s.1,0,.1,0Z"/>
    <path class="cls-7" d="m420.83,381.3h-7.3c-.7,0-1.3-.6-1.3-1.3v-61.3c0-.7.6-1.3,1.3-1.3h18.8c.7,0,1.3.6,1.3,1.3v61.9h-2.7v-60.6h-16.1v58.6h4.6v-3.7h2.7v5c0,.8-.6,1.4-1.3,1.4Z"/>
    <rect class="cls-7" x="413.53" y="333.1" width="18.8" height="2.7"/>
    <rect class="cls-7" x="413.53" y="373.5" width="10" height="2.7"/>
    <rect class="cls-7" x="398.73" y="284.1" width="2.7" height="14.4"/>
    <path class="cls-7" d="m356.13,398.1h-20.3c-.7,0-1.3-.6-1.3-1.3v-8.4h2.7v7.1h19v2.6h-.1Z"/>
    <path class="cls-7" d="m395.53,381h-6.8v-2.6h5.5v-46.2c0-.7.6-1.3,1.3-1.3h3.9v-13.4h2.7v14.7c0,.7-.6,1.3-1.3,1.3h-3.9v46.2c0,.7-.6,1.3-1.4,1.3Z"/>
    <rect class="cls-7" x="439.93" y="338.3" width="2.7" height="50.1"/>
    <path class="cls-7" d="m351.83,437.5h-7.7v-2.7h6.4v-22c0-.7.6-1.3,1.3-1.3h1v-4.3h2.7v5.6c0,.7-.6,1.3-1.3,1.3h-1v22.1c-.1.7-.7,1.3-1.4,1.3Z"/>
    <path class="cls-7" d="m197.13,444.5h-27.3v-2.7h26v-6.8h2.7v8.1c-.1.8-.7,1.4-1.4,1.4Z"/>
    <path class="cls-7" d="m180.23,436.9h-10.4v-2.7h9.1v-6.8c0-.7.6-1.3,1.3-1.3h20.6v2.7h-19.3v6.9c0,.6-.6,1.2-1.3,1.2Z"/>
    <rect class="cls-7" x="169.33" y="476.6" width="159" height="2.7"/>
    <path class="cls-7" d="m325.83,459.9h-2.7v-8.6h-49.7v-2.7h51c.7,0,1.3.6,1.3,1.3v10s.1,0,.1,0Z"/>
    <path class="cls-7" d="m353.33,475.4h-2.7v-24.1h-15.5v23.7h-2.7v-25c0-.7.6-1.3,1.3-1.3h18.2c.7,0,1.3.6,1.3,1.3v25.4h.1Z"/>
    <path class="cls-7" d="m287.43,477.5h-2.7v-19.5c0-.7.6-1.3,1.3-1.3h8.2v-6.7h2.7v8c0,.7-.6,1.3-1.3,1.3h-8.2v18.2Z"/>
    <path class="cls-7" d="m197.83,714.6h-9c-.7,0-1.3-.6-1.3-1.3v-13.8h-3.7c-.7,0-1.3-.6-1.3-1.3v-9.8h2.7v8.5h3.7c.7,0,1.3.6,1.3,1.3v13.8h7.7v2.6h-.1Z"/>
    <path class="cls-7" d="m182.33,702.2h-12.5v-2.7h11.2v-8.5h-11.2v-2.6h12.5c.7,0,1.3.6,1.3,1.3v11.2c0,.7-.6,1.3-1.3,1.3Z"/>
    <path class="cls-7" d="m182.43,681.1c0-.2-1.1-21.9-13.4-31.8l1.7-2.1c13.2,10.7,14.4,32.8,14.4,33.8l-2.7.1Z"/>
    <path class="cls-7" d="m319.63,681l-2.7-.1c0-.8.7-19.5,12.1-31l1.9,1.9c-10.6,10.8-11.3,29.1-11.3,29.2Z"/>
    <rect class="cls-7" x="150.42" y="766.48" width="2.7" height="10.9" transform="translate(-461.92 279.7) rotate(-40.14)"/>
    <path class="cls-7" d="m121.63,775.5h-2.7v-10.5c0-.4.2-.7.4-1l7.8-7,1.8,2-7.4,6.6v9.9h.1Z"/>
    <rect class="cls-7" x="153.78" y="704.24" width="9.2" height="2.7" transform="translate(-434.14 291.03) rotate(-42.37)"/>
    <path class="cls-7" d="m116.23,657.1l-1.9-1.9,5.7-5.8c.3-.3.6-.4.9-.4h0l39.7.1v2.7l-39.1-.1-5.3,5.4Z"/>
    <path class="cls-7" d="m330.43,662.1l-1.9-1.9,3.6-3.5v-4.5h-3.8c-.7,0-1.3-.6-1.3-1.3v-60.8c0-.7.6-1.3,1.3-1.3h31.5c.7,0,1.3.6,1.3,1.3v45h-2.7v-43.7h-28.8v58.1h3.9c.7,0,1.3.6,1.3,1.3v6.4c0,.4-.1.7-.4,1l-4,3.9Z"/>
    <path class="cls-7" d="m354.03,653.1l-1.8-1.9,5.6-5.3h-22.9v6.8h-2.7v-8.1c0-.7.6-1.3,1.3-1.3h26.3c.7,0,1.3.6,1.3,1.3v1.2c0,.4-.1.7-.4,1l-6.7,6.3Z"/>
    <path class="cls-7" d="m329.63,778.9h-2.7v-23.5c0-.7.6-1.3,1.3-1.3h6.4v-40.8c0-.7.6-1.3,1.3-1.3h22.3l.2-10h2.7l-.2,11.3c0,.7-.6,1.3-1.3,1.3h-22.3v40.8c0,.7-.6,1.3-1.3,1.3h-6.4v22.2Z"/>
    <rect class="cls-7" x="355.06" y="636.02" width="2.7" height="9.8" transform="translate(-341.15 414.59) rotate(-42.95)"/>
    <path class="cls-7" d="m409.03,398.9l-1.8-1.9,5.8-5.5v-2.4c0-.7.6-1.3,1.3-1.3h35.8v2.7h-34.5v1.7c0,.4-.1.7-.4,1l-6.2,5.7Z"/>
    <rect class="cls-7" x="428.46" y="381.21" width="2.7" height="9" transform="translate(-147.69 385.09) rotate(-41.84)"/>
    <rect class="cls-7" x="427.53" y="367.16" width="2.7" height="9.1" transform="translate(-135.23 434.04) rotate(-47.22)"/>
    <path class="cls-7" d="m507.83,368.1h-57.7c-.7,0-1.3-.6-1.3-1.3v-33.6c0-.7.6-1.3,1.3-1.3h7.2v-16.4l-5.2-6,2-1.7,5.5,6.4c.2.2.3.5.3.9v18.2c0,.7-.6,1.3-1.3,1.3h-7.2v30.9h56.4v2.6Z"/>
    <path class="cls-7" d="m453.73,307.5l-1.9-1.9,5.3-5.2v-1.8h-9.7c-.7,0-1.3-.6-1.3-1.3v-13.2h2.7v11.9h9.7c.7,0,1.3.6,1.3,1.3v3.7c0,.4-.1.7-.4.9l-5.7,5.6Z"/>
    <path class="cls-7" d="m423.23,291.1l-1.9-1.9,6.2-6c.2-.2.6-.4.9-.4h42.9v2.7h-42.3l-5.8,5.6Z"/>
    <path class="cls-7" d="m371.83,780.2h-202c-.7,0-1.3-.6-1.3-1.3v-4.9h2.7v3.6h199.3v-302.2c0-.7.6-1.3,1.3-1.3h77v-95.2c0-.7.6-1.3,1.3-1.3h56.4v-92.2h-41.4c-.7,0-1.3-.6-1.3-1.3V113.9h-2.5c-.4,0-.7-.1-1-.4l-6.2-6.5,1.9-1.8,5.8,6.1h3.2c.7,0,1.3.6,1.3,1.3v170.2h41.4c.7,0,1.3.6,1.3,1.3v94.9c0,.7-.6,1.3-1.3,1.3h-56.4v95.1c0,.7-.6,1.3-1.3,1.3h-77v302.2c.1.7-.5,1.3-1.2,1.3Z"/>
    <path class="cls-7" d="m432.13,112.5h-2.7v-19.8h-1.1l-5.8,5.5-1.8-1.9,6.2-5.9c.2-.2.6-.4.9-.4h3c.7,0,1.3.6,1.3,1.3v21.2h0Z"/>
    <path class="cls-7" d="m398.83,94.5h-2.7v-16.6c0-.7.6-1.3,1.3-1.3h.5c.3,0,.7.1.9.4l7.1,6.8-1.8,1.9-5.3-5.1v13.9Z"/>
    <path class="cls-7" d="m400.83,321.9h-17.5v-2.7h16.2v-12.1l-6.3-5.6,1.8-2,6.8,6c.3.3.5.6.5,1v14c-.2.8-.8,1.4-1.5,1.4Z"/>
    <path class="cls-7" d="m419.33,291.2l-5.6-5.8h-36.4v-2.7h37c.4,0,.7.1,1,.4l6,6.2-2,1.9Z"/>
    <rect class="cls-7" x="433.96" y="317.41" width="2.7" height="8.3" transform="translate(-97.64 415.66) rotate(-46.47)"/>
    <path class="cls-7" d="m388.13,398.1h-18.6c-.4,0-.7-.1-1-.4l-5.4-5.6,1.9-1.8,5,5.2h16.7l-.1-73.5h-9.6v-2.7h10.9c.7,0,1.3.6,1.3,1.3l.1,76.2c0,.4-.1.7-.4.9-.2.3-.5.4-.8.4Z"/>
    <path class="cls-7" d="m363.03,482.5l-1.9-1.9,6.2-6c.2-.2.6-.4.9-.4h4.7v2.7h-4.2l-5.7,5.6Z"/>
    <rect class="cls-7" x="355.64" y="474.3" width="2.7" height="8.6" transform="translate(-232.37 382.93) rotate(-44.06)"/>
    <rect class="cls-7" x="345.23" y="396.63" width="19.4" height="2.7" transform="translate(-177.22 363.7) rotate(-44.59)"/>
    <path class="cls-7" d="m341.63,444.2l-6.4-6.7h-49.1v-2.7h49.7c.4,0,.7.1,1,.4l6.8,7.1-2,1.9Z"/>
    <path class="cls-7" d="m282.63,444.2l-6.4-6.7h-39.9v-2.7h40.5c.4,0,.7.1,1,.4l6.8,7.1-2,1.9Z"/>
    <path class="cls-7" d="m194.63,478.6h-2.7v-23.3c0-.7.6-1.3,1.3-1.3h12.5v-4c0-.7.6-1.3,1.3-1.3h58.9l4.5-4.9,2,1.8-4.9,5.3c-.3.3-.6.4-1,.4h-58.2v4c0,.7-.6,1.3-1.3,1.3h-12.5v22h.1Z"/>
    <rect class="cls-7" x="204.86" y="419.79" width="2.7" height="9.8" transform="translate(-256.89 332.92) rotate(-52.89)"/>
    <rect class="cls-7" x="198.21" y="426.12" width="2.7" height="8.8" transform="translate(-247.26 270.77) rotate(-45.46)"/>
    <path class="cls-7" d="m233.33,444.2l-6.4-6.7h-16.8c-.7,0-1.3-.6-1.3-1.3v-45.7h2.7v44.4h16.1c.4,0,.7.1,1,.4l6.8,7.1-2.1,1.8Z"/>
    <rect class="cls-7" x="188.03" y="445.87" width="10.8" height="2.7" transform="translate(-266.34 285.87) rotate(-47.27)"/>
    <rect class="cls-7" x="323.29" y="445.69" width="8.6" height="2.7" transform="translate(-220.16 362.58) rotate(-45)"/>
    <path class="cls-7" d="m169.83,777.4h-65.3c-.7,0-1.3-.6-1.3-1.3v-125.6c0-.7.6-1.3,1.3-1.3h2.8c.4,0,.7.1,1,.4l5.5,5.8-1.9,1.8-5.1-5.4h-.9v122.9h62.6v-122.9h-2.2v-2.7h3.5c.7,0,1.3.6,1.3,1.3v125.6c0,.8-.6,1.4-1.3,1.4Z"/>
    <path class="cls-7" d="m121.63,756.3h-2.7v-17.8c0-.4.2-.8.6-1.1l6.5-4.6,1.5,2.2-5.9,4.2v17.1h0Z"/>
    <path class="cls-7" d="m441.23,325.1l-1.9-1.9,5.5-5.5c.2-.2.6-.4.9-.4h5.3v2.7h-4.7l-5.1,5.1Z"/>
    <rect class="cls-7" x="400.83" y="320.9" width="12.7" height=".9"/>
    <rect class="cls-7" x="400.83" y="318.3" width="12.7" height=".9"/>
    <rect class="cls-7" x="400.83" y="323.4" width="12.7" height=".9"/>
    <rect class="cls-7" x="400.83" y="325.9" width="12.7" height=".9"/>
    <rect class="cls-7" x="400.83" y="328.5" width="12.7" height=".9"/>
    <rect class="cls-7" x="400.83" y="331" width="12.7" height=".9"/>
    <rect class="cls-7" x="433.33" y="330.2" width="16.2" height=".9"/>
    <rect class="cls-7" x="433.33" y="327.7" width="16.2" height=".9"/>
    <rect class="cls-7" x="433.33" y="332.7" width="16.2" height=".9"/>
    <rect class="cls-7" x="433.33" y="335.2" width="16.2" height=".9"/>
    <rect class="cls-7" x="433.33" y="337.7" width="16.2" height=".9"/>
    <rect class="cls-7" x="433.33" y="340.2" width="16.2" height=".9"/>
    <rect class="cls-7" x="433.33" y="342.7" width="16.2" height=".9"/>
    <rect class="cls-7" x="433.33" y="345.2" width="16.2" height=".9"/>
    <rect class="cls-7" x="433.33" y="347.7" width="16.2" height=".9"/>
    <rect class="cls-7" x="433.33" y="350.2" width="16.2" height=".9"/>
    <rect class="cls-7" x="433.33" y="352.7" width="16.2" height=".9"/>
    <rect class="cls-7" x="433.33" y="355.2" width="16.2" height=".9"/>
    <rect class="cls-7" x="433.33" y="357.7" width="16.2" height=".9"/>
    <rect class="cls-7" x="433.33" y="360.2" width="16.2" height=".9"/>
    <rect class="cls-7" x="433.33" y="362.8" width="16.2" height=".9"/>
    <rect class="cls-7" x="433.33" y="365.3" width="16.2" height=".9"/>
    <rect class="cls-7" x="170.33" y="454.5" width="11.5" height=".9"/>
    <rect class="cls-7" x="170.33" y="451.9" width="11.5" height=".9"/>
    <rect class="cls-7" x="170.33" y="449.7" width="11.5" height=".9"/>
    <rect class="cls-7" x="170.33" y="457" width="23" height=".9"/>
    <rect class="cls-7" x="170.33" y="459.5" width="23" height=".9"/>
    <rect class="cls-7" x="170.33" y="462" width="23" height=".9"/>
    <rect class="cls-7" x="170.33" y="464.5" width="23" height=".9"/>
    <rect class="cls-7" x="170.33" y="467" width="23" height=".9"/>
    <rect class="cls-7" x="180.43" y="447.6" width="2.7" height="19.8"/>
    <rect class="cls-7" x="434.63" y="62" width=".9" height="14.6"/>
    <rect class="cls-7" x="437.03" y="62" width=".9" height="14.6"/>
    <rect class="cls-7" x="439.63" y="62" width=".9" height="14.6"/>
    <rect class="cls-7" x="442.03" y="62" width=".9" height="14.6"/>
    <rect class="cls-7" x="444.63" y="62" width=".9" height="14.6"/>
    <rect class="cls-7" x="447.03" y="62" width=".9" height="14.6"/>
    <rect class="cls-7" x="449.63" y="62" width=".9" height="14.6"/>
    <rect class="cls-7" x="335.83" y="754.3" width="12" height=".9"/>
    <rect class="cls-7" x="335.83" y="751.8" width="12" height=".9"/>
    <rect class="cls-7" x="335.83" y="749.3" width="12" height=".9"/>
    <rect class="cls-7" x="335.83" y="746.8" width="12" height=".9"/>
    <rect class="cls-7" x="335.83" y="744.3" width="12" height=".9"/>
    <rect class="cls-7" x="335.83" y="741.8" width="12" height=".9"/>
    <rect class="cls-7" x="335.83" y="739.3" width="12" height=".9"/>
    <rect class="cls-7" x="155.33" y="742.8" width="14.5" height=".9"/>
    <rect class="cls-7" x="155.33" y="740.3" width="14.5" height=".9"/>
    <rect class="cls-7" x="155.33" y="737.8" width="14.5" height=".9"/>
    <rect class="cls-7" x="155.33" y="735.3" width="14.5" height=".9"/>
    <rect class="cls-7" x="155.33" y="732.8" width="14.5" height=".9"/>
    <rect class="cls-7" x="155.33" y="730.3" width="14.5" height=".9"/>
    <rect class="cls-7" x="155.33" y="727.8" width="14.5" height=".9"/>
    <rect class="cls-7" x="155.33" y="760.2" width="14.5" height=".9"/>
    <rect class="cls-7" x="155.33" y="762.7" width="14.5" height=".9"/>
    <rect class="cls-7" x="155.33" y="757.7" width="14.5" height=".9"/>
    <rect class="cls-7" x="155.33" y="755.2" width="14.5" height=".9"/>
    <rect class="cls-7" x="155.33" y="752.7" width="14.5" height=".9"/>
    <rect class="cls-7" x="155.33" y="750.2" width="14.5" height=".9"/>
    <rect class="cls-7" x="155.33" y="747.7" width="14.5" height=".9"/>
    <rect class="cls-7" x="155.33" y="745.2" width="14.5" height=".9"/>
    <rect class="cls-7" x="137.33" y="640.9" width=".9" height="9.9"/>
    <rect class="cls-7" x="134.83" y="640.9" width=".9" height="9.9"/>
    <rect class="cls-7" x="132.33" y="640.9" width=".9" height="9.9"/>
    <rect class="cls-7" x="129.83" y="640.9" width=".9" height="9.9"/>
    <rect class="cls-7" x="127.33" y="640.9" width=".9" height="9.9"/>
    <rect class="cls-7" x="124.83" y="640.9" width=".9" height="9.9"/>
    <rect class="cls-7" x="122.33" y="640.9" width=".9" height="9.9"/>
    <rect class="cls-7" x="154.83" y="640.9" width=".9" height="9.9"/>
    <rect class="cls-7" x="157.33" y="640.9" width=".9" height="9.9"/>
    <rect class="cls-7" x="152.33" y="640.9" width=".9" height="9.9"/>
    <rect class="cls-7" x="149.83" y="640.9" width=".9" height="9.9"/>
    <rect class="cls-7" x="147.33" y="640.9" width=".9" height="9.9"/>
    <rect class="cls-7" x="144.83" y="640.9" width=".9" height="9.9"/>
    <rect class="cls-7" x="142.33" y="640.9" width=".9" height="9.9"/>
    <rect class="cls-7" x="139.83" y="640.9" width=".9" height="9.9"/>
    <rect class="cls-7" x="413.03" y="400.1" width="2.7" height="6.5"/>
    <path class="cls-7" d="m420.13,466.8h-10.2v-15.5h4.4c.7,0,1.3-.6,1.3-1.3v-4.6h-2.7v3.3h-4.3c-.7,0-1.3.6-1.3,1.3v18.2c0,.7.6,1.3,1.3,1.3h10.2v5.9h2.7v-7.2c0-.8-.7-1.4-1.4-1.4Z"/>
    <rect class="cls-7" x="350.83" y="735.7" width="16.4" height="16.4"/>
    <rect class="cls-10" x="355.13" y="742.1" width="1.9" height="7"/>
    <polygon class="cls-10" points="353.33 742.8 356.13 738.5 358.83 742.8 353.33 742.8"/>
    <rect class="cls-10" x="361.13" y="738.5" width="1.9" height="7"/>
    <polygon class="cls-10" points="364.83 744.7 362.13 749.1 359.33 744.7 364.83 744.7"/>
    <rect class="cls-7" x="377.33" y="453.2" width="19" height="19"/>
    <rect class="cls-10" x="382.33" y="460.6" width="2.2" height="8.1"/>
    <polygon class="cls-10" points="380.13 461.5 383.53 456.4 386.53 461.5 380.13 461.5"/>
    <rect class="cls-10" x="389.33" y="456.4" width="2.2" height="8.1"/>
    <polygon class="cls-10" points="393.53 463.6 390.33 468.7 387.13 463.6 393.53 463.6"/>
    <rect class="cls-7" x="480.33" y="54.6" width="25.1" height="25.1"/>
    <rect class="cls-10" x="487.03" y="64.4" width="2.9" height="10.7"/>
    <polygon class="cls-10" points="484.13 65.5 488.33 58.8 492.53 65.5 484.13 65.5"/>
    <rect class="cls-10" x="496.13" y="58.8" width="2.9" height="10.7"/>
    <polygon class="cls-10" points="501.83 68.4 497.53 75.1 493.33 68.4 501.83 68.4"/>
    <rect class="cls-7" x="410.13" y="344.4" width="18.9" height="18.9"/>
    <path class="cls-10" d="m423.53,354s-.7-2.4-1-3.7c-.4-1.3-1.6-1.4-1.6-1.4h-2.6s-1.2,0-1.6,1.4-1,3.7-1,3.7c0,0-.3.8.2.9.5.2.8-.6.8-.6l1-3.4s0-.2.2-.1c.1,0,.1.1.1.2l-1.6,5.8s-.1.3.1.4h1.5s.1,0,.1.5v3.8s0,.6.6.6c.7,0,.7-.6.7-.6v-4s0-.1.1-.1.1.1.1.1v4s.1.6.7.6.6-.6.6-.6v-3.8c0-.5.1-.5.1-.5h1.5c.2,0,.1-.4.1-.4l-1.6-5.8c0-.1,0-.2.1-.2s.1.1.2.1l1,3.4s.3.8.8.6c.7-.2.4-.9.4-.9Z"/>
    <circle class="cls-10" cx="419.53" cy="347.2" r="1.4"/>
    <rect class="cls-7" x="301.13" y="454.2" width="19" height="19"/>
    <circle class="cls-10" cx="310.53" cy="457" r="1.4"/>
    <path class="cls-10" d="m312.33,458.7h-3.6s-1.2.2-1.4,1.2v4.8s0,.6.5.6c.6,0,.6-.6.6-.6v-3.7s0-.2.2-.2.2.2.2.2v10s0,.6.7.6.7-.7.7-.7v-5.6s.1-.1.2-.1.1,0,.2.1,0,.2,0,.2v5.4s0,.7.7.7.7-.6.7-.6v-10s0-.2.2-.2.2.2.2.2v3.7s0,.6.6.6c.5,0,.5-.6.5-.6v-4.8c0-1-1.2-1.2-1.2-1.2Z"/>
    <rect class="cls-7" x="107.53" y="753" width="15.8" height="14.7"/>
    <ellipse class="cls-10" cx="115.33" cy="758.2" rx="2.5" ry="2.4"/>
    <path class="cls-10" d="m121.23,765.5v-2.4c-.3-1.8-2.5-2-2.5-2h-6.5s-2.2.3-2.5,2v2.4h11.5Z"/>
    <rect class="cls-7" x="183.13" y="429.6" width="11.4" height="11.4"/>
    <circle class="cls-10" cx="188.73" cy="433.5" r="1.8"/>
    <path class="cls-10" d="m192.83,439.2v-1.8c-.2-1.4-1.8-1.6-1.8-1.6h-4.6s-1.6.2-1.8,1.6v1.8h8.2Z"/>
    <rect class="cls-7" x="402.13" y="94.6" width="14.7" height="14.7"/>
    <circle class="cls-10" cx="409.33" cy="99.8" r="2.4"/>
    <path class="cls-10" d="m414.83,107.1v-2.4c-.2-1.8-2.3-2.1-2.3-2.1h-6s-2.1.3-2.3,2.1v2.4h10.6Z"/>
    <path class="cls-7" d="m126.83,664.7c0-.2-.1-.4-.2-.5s-.2-.3-.4-.4c-.2-.1-.3-.2-.5-.2-.5,0-.8.3-1.1.8-.3.5-.3,1.5-.3,2.7,0,.6,0,1.2.1,1.7,0,.5.1.9.2,1.3.1.3.2.6.4.8s.4.3.7.3c.1,0,.3,0,.4-.1s.3-.2.4-.3c.1-.1.2-.3.3-.5s.1-.4.1-.7v-1.1h-1.3v-1.5h3.3v5.5h-1.6v-1h0c-.2.4-.5.7-.9.8-.3.2-.8.2-1.2.2-.6,0-1.1-.1-1.5-.3-.4-.2-.7-.6-.9-1-.2-.5-.4-1-.5-1.7s-.1-1.5-.1-2.3c0-.9,0-1.6.2-2.2.1-.7.3-1.2.6-1.6s.6-.8,1.1-1,1-.3,1.6-.3c1.1,0,1.9.3,2.4.8.5.6.7,1.3.7,2.4h-2c0-.2,0-.4,0-.6Z"/>
    <path class="cls-7" d="m132.03,664.8v1h0c.2-.4.4-.7.7-.9.3-.2.6-.3,1-.3h.4v1.9h-.6c-.2,0-.3,0-.5.1s-.3.1-.5.2-.3.2-.3.4c-.1.2-.1.4-.1.7v4.6h-2v-7.7h1.9Z"/>
    <path class="cls-7" d="m136.33,669.5c0,.2,0,.5.1.7s.1.4.2.6.2.3.3.4.3.2.5.2c.3,0,.6-.1.7-.4s.3-.6.3-1.1h1.8c0,.9-.3,1.6-.7,2-.4.5-1.1.7-2.1.7-.7,0-1.3-.1-1.7-.4-.4-.2-.7-.5-.9-.9s-.3-.8-.4-1.3c0-.5-.1-1-.1-1.5s0-1,.1-1.5.2-.9.4-1.3.5-.7.9-.9c.4-.2.9-.3,1.6-.3.6,0,1,.1,1.4.3.4.2.6.5.9.8.2.3.3.8.4,1.2.1.4.1,1,.1,1.6v.4h-3.9l.1.7h0Zm2-2.5c0-.2-.1-.4-.1-.6-.1-.2-.2-.3-.3-.4s-.3-.1-.5-.1-.4,0-.5.1-.2.2-.3.4c-.1.2-.1.3-.2.5s-.1.4-.1.5v.3h2v-.7Z"/>
    <path class="cls-7" d="m142.83,669.5v.7c0,.2.1.4.2.6s.2.3.3.4.3.2.5.2c.3,0,.6-.1.7-.4.1-.2.3-.6.3-1.1h1.8c0,.9-.3,1.6-.7,2-.4.5-1.1.7-2.1.7-.7,0-1.3-.1-1.7-.4-.4-.2-.7-.5-.9-.9s-.3-.8-.3-1.3-.1-1-.1-1.5,0-1,.1-1.5.2-.9.4-1.3.5-.7.9-.9c.4-.2.9-.3,1.6-.3.6,0,1,.1,1.4.3.4.2.6.5.9.8.2.3.3.8.4,1.2.1.5.1,1,.1,1.6v.4h-3.9l.1.7h0Zm2-2.5c0-.2-.1-.4-.1-.6s-.2-.3-.3-.4-.3-.1-.5-.1-.4,0-.5.1-.2.2-.3.4c-.1.2-.1.3-.2.5s-.1.4-.1.5v.3h2v-.7Z"/>
    <path class="cls-7" d="m149.53,664.8v.9h0c.2-.4.5-.7.8-.8.3-.2.7-.3,1.1-.3.6,0,1.1.2,1.4.5s.5.9.5,1.7v5.7h-2v-5.3c0-.4-.1-.7-.2-.8-.1-.2-.4-.2-.6-.2-.7,0-1,.4-1,1.3v5.1h-2v-7.7l2-.1h0Z"/>
    <path class="cls-7" d="m126.33,676.6c.9,0,1.5.2,2,.7.5.4.7,1.1.7,2,0,.7-.1,1.2-.4,1.7-.3.4-.7.7-1.3.8h0c.5.1.9.2,1.1.5s.4.7.4,1.2v1.4c0,.5.1,1,.1,1.2.1.3.2.5.4.6v.1h-2.2c-.1-.1-.2-.3-.2-.5s-.1-.4-.1-.6l-.1-2c0-.4-.1-.7-.3-.9s-.5-.3-.9-.3h-1v4.3h-2v-10.2h3.8Zm-.8,4.4c.5,0,.9-.1,1.1-.3s.4-.6.4-1.2c0-.9-.5-1.4-1.4-1.4h-1v2.9h.9Z"/>
    <path class="cls-7" d="m130.23,681.2c.1-.5.3-.9.5-1.3.2-.3.6-.6.9-.8.4-.2.9-.3,1.4-.3.6,0,1.1.1,1.5.2s.7.4.9.8.4.8.5,1.3.1,1.1.1,1.8-.1,1.2-.2,1.7-.3.9-.5,1.3c-.2.3-.6.6-.9.8-.4.2-.9.2-1.4.2-.6,0-1.1-.1-1.5-.2-.4-.2-.7-.4-.9-.7-.2-.3-.4-.8-.5-1.3s-.1-1.1-.1-1.8c0-.6.1-1.2.2-1.7Zm1.8,2.8c0,.3.1.6.1.9s.2.4.3.6c.1.1.3.2.6.2.4,0,.7-.2.8-.6s.2-1.1.2-2.1-.1-1.7-.2-2.1c-.2-.4-.4-.6-.8-.6-.2,0-.4.1-.6.2s-.2.3-.3.6c-.1.2-.1.5-.1.9v2Z"/>
    <path class="cls-7" d="m136.83,681.2c.1-.5.3-.9.5-1.3.2-.3.5-.6.9-.8.4-.2.9-.3,1.4-.3.6,0,1.1.1,1.5.2s.7.4.9.8c.2.3.4.8.5,1.3s.1,1.1.1,1.8-.1,1.2-.2,1.7-.3.9-.5,1.3c-.2.3-.6.6-.9.8s-.9.2-1.4.2c-.6,0-1.1-.1-1.5-.2s-.7-.4-.9-.7c-.2-.3-.4-.8-.5-1.3s-.1-1.1-.1-1.8c.1-.6.2-1.2.2-1.7Zm1.9,2.8c0,.3.1.6.1.9.1.2.2.4.3.6.1.1.3.2.6.2.4,0,.7-.2.8-.6s.2-1.1.2-2.1-.1-1.7-.2-2.1c-.2-.4-.4-.6-.8-.6-.2,0-.4.1-.6.2s-.2.3-.3.6c-.1.2-.1.5-.1.9v2Z"/>
    <path class="cls-7" d="m145.53,679.1v.8h0c.2-.3.5-.6.8-.8.3-.2.7-.2,1.1-.2.5,0,.8.1,1.2.3.3.2.5.5.6.9h0c.1-.4.4-.7.7-.9.3-.2.7-.3,1.2-.3.7,0,1.1.2,1.4.6s.5,1,.5,1.7v5.6h-2v-5.4c0-.3-.1-.6-.2-.7s-.3-.3-.6-.3-.6.1-.8.3-.3.5-.3,1v5h-2v-5.4c0-.3-.1-.6-.2-.7-.1-.2-.3-.3-.6-.3s-.6.1-.8.3-.3.5-.3,1v5h-2v-7.7l2.3.2h0Z"/>
    <path class="cls-7" d="m230.8,400.13h1.8v7.4h3.2v1.5h-5v-8.9Z"/>
    <path class="cls-7" d="m237.8,406.53v.6c0,.2.1.4.1.5.1.1.1.3.3.4.1.1.2.1.4.1.3,0,.5-.1.6-.3s.2-.5.3-1h1.6c0,.8-.2,1.4-.6,1.8-.4.4-1,.6-1.8.6-.6,0-1.1-.1-1.5-.3s-.6-.5-.8-.8-.3-.7-.3-1.1-.1-.9-.1-1.3c0-.5,0-.9.1-1.3s.2-.8.4-1.1c.2-.3.5-.6.8-.8.3-.2.8-.3,1.4-.3.5,0,.9.1,1.2.2s.6.4.8.7c.2.3.3.6.4,1.1.1.5.1.9.1,1.4v.4h-3.4v.5h0Zm1.8-2.3c0-.2-.1-.4-.1-.5s-.1-.2-.3-.3-.3-.1-.4-.1-.3,0-.4.1c-.1.1-.2.2-.3.3s-.1.3-.1.4v.8h1.8c-.2-.2-.2-.4-.2-.7Z"/>
    <path class="cls-7" d="m247.1,408.73c0,.9-.2,1.5-.6,2-.4.5-1.1.6-2.1.6-.7,0-1.3-.2-1.7-.5s-.6-.8-.6-1.3h1.6c0,.2.1.4.3.5.1.1.2.1.3.1h.3c.4,0,.6-.1.7-.3.1-.2.2-.5.2-.8v-.9h0c-.2.2-.4.5-.6.6-.2.1-.5.2-.8.2-.7,0-1.2-.3-1.5-.8-.4-.5-.5-1.4-.5-2.6,0-.4,0-.8.1-1.2,0-.4.1-.8.3-1.1.1-.3.4-.6.6-.8.3-.2.6-.3,1.1-.3.2,0,.5.1.8.2s.5.4.6.7h0v-.8h1.7l-.2,6.5h0Zm-3.3-2.1c0,.2.1.4.1.6.1.2.1.3.3.4.1.1.3.1.4.1.2,0,.3,0,.5-.1s.2-.2.3-.4.1-.4.1-.6v-.8c0-.8-.1-1.4-.2-1.7-.1-.3-.4-.5-.7-.5-.2,0-.4,0-.5.1s-.2.2-.3.4c-.1.2-.1.4-.1.8v1.1c.1.1.1.4.1.6Z"/>
    <path class="cls-7" d="m248.3,404.23c0-.4.1-.7.2-1,.1-.3.3-.5.5-.6.2-.2.5-.3.8-.4s.6-.1.9-.1c.5,0,.9,0,1.2.1s.6.2.7.4c.2.2.3.4.4.6.1.2.1.5.1.8v4.2c0,.2.1.4.2.6h-1.6c-.1-.1-.1-.2-.1-.3s-.1-.2-.1-.4h0c-.2.4-.4.6-.7.7s-.6.2-1,.2c-.3,0-.6,0-.8-.2-.2-.1-.4-.2-.5-.4s-.2-.4-.3-.6-.1-.5-.1-.7c0-.3,0-.6.1-.8.1-.2.2-.4.3-.6s.3-.3.5-.4.5-.2.8-.3l1-.3c.3-.1.4-.2.5-.3s.1-.3.1-.5c0-.3-.1-.5-.2-.6s-.3-.2-.6-.2-.5.1-.6.2-.2.4-.2.6v.2l-1.5.1h0Zm2.5,1.7c-.1,0-.2.1-.4.1-.4.1-.6.2-.8.4-.1.2-.2.4-.2.7s0,.5.1.7.3.3.5.3c.1,0,.2,0,.4-.1s.2-.1.3-.2.2-.2.3-.3.1-.3.1-.5v-1.3c.2.1,0,.2-.3.2Z"/>
    <path class="cls-7" d="m255.8,400.13v8.9h-1.7v-8.9h1.7Z"/>
    <path class="cls-7" d="m224.94,419.56v.6c0,.2.1.3.2.4.1.1.2.2.4.3s.4.1.6.1c.3,0,.5-.1.7-.3.2-.2.3-.5.3-.8,0-.2,0-.4-.1-.5,0-.1-.1-.3-.3-.4-.1-.1-.3-.2-.5-.3s-.5-.2-.8-.3c-.4-.1-.7-.3-1-.4-.3-.2-.5-.3-.7-.6-.2-.2-.3-.5-.4-.7-.1-.3-.1-.6-.1-1,0-.9.2-1.5.7-2,.5-.4,1.2-.6,2-.6.4,0,.8,0,1.1.1s.6.2.9.4c.2.2.4.4.6.8.1.3.2.7.2,1.1v.2h-1.7c0-.4-.1-.8-.2-1-.1-.2-.4-.3-.8-.3-.2,0-.4,0-.5.1s-.2.1-.3.2-.1.2-.2.3v.4c0,.3.1.5.2.7.1.2.4.4.8.5l1.4.6c.3.1.6.3.8.5s.4.3.5.5.2.4.3.6c0,.2.1.5.1.8,0,.9-.3,1.6-.8,2s-1.3.6-2.3.6-1.7-.2-2.2-.7-.7-1.1-.7-1.9v-.4h1.8v.4h0Z"/>
    <path class="cls-7" d="m231.14,419.56v.6c0,.2.1.4.1.5.1.1.1.3.3.4.1.1.2.1.4.1.3,0,.5-.1.6-.3s.2-.5.3-1h1.5c0,.8-.2,1.4-.6,1.8-.4.4-1,.6-1.8.6-.6,0-1.1-.1-1.5-.3-.3-.2-.6-.5-.8-.8s-.3-.7-.3-1.1-.1-.9-.1-1.3c0-.5,0-.9.1-1.3s.2-.8.4-1.1c.2-.3.5-.6.8-.8.4-.2.8-.3,1.4-.3.5,0,.9.1,1.2.2s.6.4.8.7c.2.3.3.6.4,1.1.1.5.1.9.1,1.4v.4h-3.3v.5h0Zm1.8-2.3c0-.2-.1-.4-.1-.5s-.1-.2-.3-.3c-.1-.1-.3-.1-.4-.1-.2,0-.3,0-.4.1-.1.1-.2.2-.3.3s-.1.3-.1.4v.8h1.8c-.2-.2-.2-.4-.2-.7Z"/>
    <path class="cls-7" d="m236.94,415.36v.9h0c.2-.3.4-.6.6-.8.2-.2.5-.3.9-.3h.4v1.6h-.6c-.1,0-.3,0-.5.1-.1,0-.3.1-.4.2-.1.1-.2.2-.3.4-.1.1-.1.3-.1.6v4h-1.6v-6.7h1.6Z"/>
    <path class="cls-7" d="m244.64,415.36l-1.7,6.7h-2l-1.7-6.7h1.8l1,4.8h0l.9-4.8h1.7Z"/>
    <path class="cls-7" d="m246.94,413.06v1.5h-1.8v-1.5h1.8Zm0,2.3v6.7h-1.8v-6.7h1.8Z"/>
    <path class="cls-7" d="m251.14,417.36c0-.2-.1-.3-.1-.4s-.1-.2-.2-.3c-.1-.1-.2-.1-.4-.1s-.4,0-.5.1-.2.2-.3.4c-.1.2-.1.4-.1.7v2.1c0,.3.1.5.1.7.1.2.2.3.3.4s.3.1.5.1c.3,0,.5-.1.6-.4.1-.2.2-.6.2-1.2h1.6c0,.9-.2,1.5-.6,2-.4.5-1.1.7-2,.7-.4,0-.8,0-1.1-.2-.3-.1-.6-.3-.8-.6s-.4-.6-.5-1.1-.2-1-.2-1.7.1-1.3.2-1.7c.1-.5.3-.8.6-1.1.3-.3.5-.5.9-.6.3-.1.7-.2,1.1-.2.8,0,1.4.2,1.8.7.4.5.6,1.1.6,1.9h-1.7c0,.1,0-.1,0-.2Z"/>
    <path class="cls-7" d="m255.14,419.56v.6c0,.2.1.4.1.5.1.1.2.3.3.4s.2.1.4.1c.3,0,.5-.1.6-.3s.2-.5.3-1h1.5c0,.8-.2,1.4-.6,1.8-.4.4-1,.6-1.8.6-.6,0-1.1-.1-1.5-.3s-.6-.5-.8-.8-.3-.7-.3-1.1-.1-.9-.1-1.3c0-.5,0-.9.1-1.3s.2-.8.4-1.1c.2-.3.5-.6.8-.8.4-.2.8-.3,1.4-.3.5,0,.9.1,1.2.2.3.2.6.4.8.7.2.3.3.6.4,1.1.1.5.1.9.1,1.4v.4h-3.4l.1.5h0Zm1.7-2.3c0-.2-.1-.4-.1-.5s-.1-.2-.3-.3c-.1-.1-.3-.1-.4-.1-.2,0-.3,0-.4.1s-.2.2-.3.3-.1.3-.1.4v.8h1.8c-.2-.2-.2-.4-.2-.7Z"/>
    <path class="cls-7" d="m260.34,420.16c0,.3.1.5.2.7.1.2.4.3.7.3s.5-.1.6-.2.2-.3.2-.6c0-.2-.1-.4-.2-.5s-.3-.2-.4-.3l-1.2-.4c-.5-.2-.8-.4-1.1-.7-.2-.3-.4-.7-.4-1.2,0-.3,0-.5.1-.8s.2-.5.4-.6c.2-.2.5-.3.8-.4s.7-.2,1.1-.2c.8,0,1.4.2,1.7.5s.6.8.6,1.4v.3h-1.6c0-.4-.1-.6-.2-.8-.1-.2-.3-.2-.6-.2-.2,0-.4.1-.6.2-.2.1-.2.3-.2.5s.1.3.2.5c.1.1.3.2.6.3l1,.4c.5.2.9.4,1.1.7.2.3.3.7.3,1.2,0,.4-.1.7-.2.9-.1.3-.3.5-.5.7s-.5.3-.8.4-.6.1-1,.1c-.5,0-.9,0-1.2-.1s-.6-.2-.8-.4-.3-.4-.4-.7c-.1-.3-.1-.6-.1-.9v-.2h1.5l.4.1h0Z"/>
    <path class="cls-7" d="m297.97,406.42c0,.2,0,.4.1.6s.1.3.2.4c.1.1.2.2.4.3.1.1.4.1.6.1.3,0,.5-.1.7-.3.2-.2.3-.5.3-.8,0-.2,0-.4-.1-.5s-.1-.3-.3-.4c-.1-.1-.3-.2-.5-.3-.2-.1-.5-.2-.8-.3-.4-.1-.7-.3-1-.4-.3-.2-.5-.3-.7-.6-.2-.2-.3-.5-.4-.7-.1-.2-.1-.6-.1-1,0-.9.2-1.5.7-2s1.2-.6,2-.6c.4,0,.8,0,1.1.1s.6.2.9.4c.2.2.4.4.6.8.1.3.2.7.2,1.1v.2h-1.7c0-.4-.1-.8-.2-1s-.4-.3-.8-.3c-.2,0-.4,0-.5.1s-.2.1-.3.2-.1.2-.2.3,0,.2,0,.4c0,.3.1.5.2.7.1.2.4.4.8.5l1.4.6c.3.1.6.3.8.5s.4.3.5.5.2.4.3.6.1.5.1.8c0,.9-.3,1.6-.8,2s-1.3.6-2.3.6-1.7-.2-2.2-.7c-.4-.4-.7-1.1-.7-1.9v-.3h1.8l-.1.3h0Z"/>
    <path class="cls-7" d="m304.77,400.32v1.9h1v1.2h-1v3.6c0,.3,0,.5.1.6s.2.2.5.2h.4v1.2h-1.2c-.3,0-.6,0-.8-.1-.2,0-.4-.1-.5-.3-.1-.1-.2-.3-.2-.5s-.1-.5-.1-.9v-3.8h-.9v-1.2h.9v-1.9h1.8Z"/>
    <path class="cls-7" d="m309.77,408.12c-.2.3-.4.6-.7.7s-.6.2-1,.2c-.6,0-1-.1-1.3-.4s-.4-.8-.4-1.4v-5h1.7v4.6c0,.4.1.6.2.7.1.1.3.2.6.2.6,0,.9-.4.9-1.1v-4.5h1.7v6.7h-1.6l-.1-.7h0Z"/>
    <path class="cls-7" d="m315.77,408.22c-.2.3-.4.5-.6.7-.2.1-.5.2-.9.2-.7,0-1.2-.3-1.6-.8-.3-.5-.5-1.4-.5-2.7s.2-2.1.5-2.7c.3-.5.8-.8,1.6-.8.3,0,.6.1.8.2s.4.3.6.6h0v-2.8h1.7v8.9h-1.7l.1-.8h0Zm-1.7-1c.1.4.4.5.7.5.4,0,.6-.2.7-.5.1-.3.2-.9.2-1.6s-.1-1.3-.2-1.6c-.1-.3-.4-.6-.7-.6-.4,0-.6.2-.7.6-.1.4-.2.9-.2,1.6s.2,1.3.2,1.6Z"/>
    <path class="cls-7" d="m320.07,406.42v.6c0,.2.1.4.1.5.1.1.1.3.3.4s.2.1.4.1c.3,0,.5-.1.6-.3.1-.2.2-.5.3-1h1.6c0,.8-.2,1.4-.6,1.8-.4.4-1,.6-1.8.6-.6,0-1.1-.1-1.5-.3-.4-.2-.6-.5-.8-.8s-.3-.7-.3-1.1-.1-.9-.1-1.3c0-.5,0-.9.1-1.3s.2-.8.4-1.1c.2-.3.5-.6.8-.8.4-.2.8-.3,1.4-.3.5,0,.9.1,1.2.2s.6.4.8.7c.2.3.3.6.4,1.1s.1.9.1,1.4v.4h-3.4v.5h0Zm1.7-2.3c0-.2-.1-.4-.1-.5s-.1-.2-.3-.3c-.1-.1-.3-.1-.4-.1-.2,0-.3,0-.4.1-.1.1-.2.2-.3.3s-.1.3-.1.4v.8h1.8c-.2-.2-.2-.5-.2-.7Z"/>
    <path class="cls-7" d="m325.77,402.22v.8h0c.2-.3.4-.6.7-.7s.6-.2,1-.2c.5,0,1,.1,1.3.5.3.3.4.8.4,1.5v5h-1.7v-4.6c0-.4-.1-.6-.2-.7-.1-.1-.3-.2-.6-.2-.6,0-.9.4-.9,1.1v4.5h-1.7v-6.7l1.7-.3h0Z"/>
    <path class="cls-7" d="m332.47,400.32v1.9h1v1.2h-1v3.6c0,.3,0,.5.1.6s.2.2.5.2h.4v1.2h-1.2c-.3,0-.6,0-.8-.1-.2,0-.4-.1-.5-.3-.1-.1-.2-.3-.2-.5s-.1-.5-.1-.9v-3.8h-.9v-1.2h.9v-1.9h1.8Z"/>
    <path class="cls-7" d="m296.78,411.77l2.4,8.9h-1.9l-.5-1.9h-2.4l-.4,1.9h-1.9l2.4-8.9h2.3Zm-.2,5.6l-.9-4h0l-.9,4h1.8Z"/>
    <path class="cls-7" d="m302.98,419.97c-.2.3-.4.5-.6.7-.2.1-.5.2-.9.2-.7,0-1.2-.3-1.6-.8-.4-.5-.5-1.4-.5-2.7s.2-2.1.5-2.7c.3-.5.9-.8,1.6-.8.3,0,.6.1.8.2s.4.3.6.6h0v-2.8h1.7v8.9h-1.6v-.8h0Zm-1.7-1c.1.4.4.5.7.5.4,0,.6-.2.7-.5s.2-.9.2-1.6-.1-1.3-.2-1.6-.4-.6-.7-.6c-.4,0-.6.2-.7.6s-.2.9-.2,1.6.2,1.3.2,1.6Z"/>
    <path class="cls-7" d="m310.58,413.97l-1.7,6.7h-2l-1.7-6.7h1.8l1,4.8h0l.9-4.8h1.7Z"/>
    <path class="cls-7" d="m310.98,415.87c.1-.4.2-.8.5-1.1.2-.3.5-.5.8-.7.3-.1.8-.2,1.2-.2.5,0,.9.1,1.3.2.3.1.6.4.8.7.2.3.3.7.4,1.1.1.4.1,1,.1,1.5,0,.6-.1,1.1-.1,1.5s-.2.8-.5,1.1c-.2.3-.5.5-.8.6s-.8.2-1.2.2c-.5,0-.9-.1-1.3-.2-.3-.1-.6-.4-.8-.6-.2-.3-.3-.7-.4-1.1s-.1-1-.1-1.5c.1-.6.1-1.1.1-1.5Zm1.6,2.4c0,.3.1.5.1.8s.2.4.3.5.3.2.5.2c.4,0,.6-.2.7-.5s.2-1,.2-1.8-.1-1.4-.2-1.8-.4-.5-.7-.5c-.2,0-.4.1-.5.2s-.2.3-.3.5-.1.5-.1.8v1.6Z"/>
    <path class="cls-7" d="m320.28,415.87c0-.2-.1-.3-.1-.4-.1-.1-.1-.2-.2-.3-.1-.1-.2-.1-.4-.1s-.4,0-.5.1-.2.2-.3.4c-.1.2-.1.4-.1.7v2.1c0,.3.1.5.1.7s.2.3.3.4.3.1.5.1c.3,0,.5-.1.6-.4.1-.2.2-.6.2-1.2h1.6c0,.9-.2,1.5-.6,2-.4.5-1.1.7-2,.7-.4,0-.8,0-1.1-.2-.3-.1-.6-.3-.8-.6-.2-.3-.4-.6-.5-1.1s-.2-1-.2-1.7.1-1.3.2-1.7c.1-.5.3-.8.6-1.1.3-.3.5-.5.9-.6.3-.1.7-.2,1.1-.2.8,0,1.4.2,1.8.7.4.5.6,1.1.6,1.9h-1.6c-.1.2-.1,0-.1-.2Z"/>
    <path class="cls-7" d="m322.58,415.87c0-.4.1-.7.2-1,.1-.3.3-.5.5-.6.2-.2.5-.3.8-.4s.6-.1.9-.1c.5,0,.9,0,1.2.1s.6.2.7.4c.2.2.3.4.4.6.1.2.1.5.1.8v4.2c0,.2.1.4.2.6h-1.6c-.1-.1-.1-.2-.1-.3s-.1-.2-.1-.4h0c-.2.4-.4.6-.7.7s-.6.2-1,.2c-.3,0-.6,0-.8-.2-.2-.1-.4-.2-.5-.4-.1-.2-.2-.4-.3-.6s-.1-.5-.1-.7c0-.3,0-.6.1-.8s.2-.4.3-.6.3-.3.5-.4.5-.2.8-.3l1-.3c.3-.1.4-.2.5-.3.1-.1.1-.3.1-.5,0-.3-.1-.5-.2-.6-.1-.1-.3-.2-.6-.2s-.5.1-.6.2-.2.4-.2.6v.2h-1.6l.1.1h0Zm2.9,1.7c-.1,0-.2.1-.4.1-.3.1-.6.2-.8.4-.1.2-.2.4-.2.7s0,.5.1.7.3.3.5.3c.1,0,.2,0,.4-.1s.2-.1.3-.2.2-.2.3-.3.1-.3.1-.5v-1.3c0,.1-.2.1-.3.2Z"/>
    <path class="cls-7" d="m331.78,415.87c0-.2-.1-.3-.1-.4s-.1-.2-.2-.3c-.1-.1-.2-.1-.4-.1s-.4,0-.5.1-.2.2-.3.4c-.1.2-.1.4-.1.7v2.1c0,.3.1.5.1.7.1.2.2.3.3.4s.3.1.5.1c.3,0,.5-.1.6-.4.1-.2.2-.6.2-1.2h1.6c0,.9-.2,1.5-.6,2-.4.5-1,.7-2,.7-.4,0-.8,0-1.1-.2-.3-.1-.6-.3-.8-.6-.2-.3-.4-.6-.5-1.1s-.2-1-.2-1.7.1-1.3.2-1.7c.1-.5.3-.8.6-1.1.2-.3.5-.5.9-.6.3-.1.7-.2,1.1-.2.8,0,1.4.2,1.8.7.4.5.6,1.1.6,1.9h-1.7c0,.2,0,0,0-.2Z"/>
    <path class="cls-7" d="m334.48,421.57c.3,0,.5-.1.7-.2s.2-.4.2-.7l-1.9-6.7h1.8l1,4.6h0l.9-4.6h1.7l-1.6,6.3c-.2.6-.3,1-.4,1.4-.1.4-.3.6-.5.8-.2.2-.4.3-.7.4s-.6.1-1,.1h-.7v-1.3c0-.1.3-.1.5-.1Z"/>
    <path class="cls-7" d="m349.53,337c.4,0,.8,0,1.2.1s.7.2.9.4c.2.2.5.5.6.8.1.3.2.7.2,1.2s-.1,1-.4,1.4c-.3.4-.6.7-1.2.8h0c.6.1,1,.3,1.4.7.3.4.5,1,.5,1.6,0,.4,0,.8-.2,1.1-.1.4-.3.7-.5,1-.2.3-.6.5-1,.6-.4.2-.9.2-1.5.2h-3.5v-10.2l3.5.3h0Zm-1,4.2c.6,0,1-.1,1.2-.3.3-.2.4-.5.4-1s-.1-.8-.4-1c-.3-.2-.6-.3-1.1-.3h-.7v2.7l.6-.1h0Zm.3,4.5c.5,0,.9-.1,1.2-.3s.5-.6.5-1.2c0-.3,0-.5-.1-.7s-.2-.4-.3-.5-.2-.2-.4-.2-.4-.1-.6-.1h-.9v3.1l.6-.1h0Z"/>
    <path class="cls-7" d="m353.53,341.6c.1-.5.3-.9.5-1.3.2-.3.5-.6.9-.8s.9-.3,1.4-.3c.6,0,1.1.1,1.5.2.4.2.7.4.9.8.2.4.4.8.5,1.3s.1,1.1.1,1.8,0,1.2-.2,1.7c-.1.5-.3.9-.5,1.3-.2.3-.5.6-.9.8s-.9.2-1.4.2c-.6,0-1.1-.1-1.5-.2-.4-.1-.7-.4-.9-.7s-.4-.8-.5-1.3-.1-1.1-.1-1.8c.2-.6.2-1.2.2-1.7Zm2,2.9c0,.3.1.6.1.9s.2.4.3.6.3.2.6.2c.4,0,.7-.2.8-.6.1-.4.2-1.1.2-2.1s-.2-1.6-.3-2.1c0-.4-.4-.6-.8-.6-.2,0-.4.1-.6.2-.2.1-.2.3-.3.6s-.1.5-.1.9v1.1c.1.2.1.5.1.9Z"/>
    <path class="cls-7" d="m360.53,341.7c0-.5.1-.8.2-1.1s.3-.5.6-.7.5-.3.9-.4c.4-.1.7-.1,1-.1.6,0,1.1.1,1.4.2.4.1.6.3.8.5s.3.5.4.8c.1.3.1.6.1,1v4.8c0,.2.1.4.2.6h-1.9c-.1-.1-.1-.2-.1-.4s-.1-.3-.1-.4h0c-.2.4-.5.7-.8.8s-.7.2-1.2.2c-.3,0-.6-.1-.9-.2-.3-.1-.4-.3-.6-.5s-.2-.4-.3-.7-.1-.5-.1-.8c0-.4,0-.7.1-.9.1-.3.2-.5.4-.7s.4-.3.6-.5c.2-.1.5-.2.9-.3l1.1-.3c.3-.1.5-.2.6-.3s.2-.3.2-.6-.1-.5-.2-.7-.4-.2-.7-.2-.5.1-.7.3-.2.4-.2.7v.2h-1.9l.2-.3h0Zm3,1.9c-.1.1-.3.1-.4.1-.4.1-.7.2-.9.4-.2.2-.3.5-.3.8s.1.5.2.8c.1.2.3.3.6.3.1,0,.3,0,.4-.1.1-.1.3-.1.4-.2.1-.1.2-.2.3-.4.1-.1.1-.3.1-.5v-1.5c.1.2-.1.3-.4.3Z"/>
    <path class="cls-7" d="m369.13,339.5v1h0c.2-.4.4-.7.7-.9.3-.2.6-.3,1-.3h.4v1.9h-.6c-.2,0-.3,0-.5.1-.2,0-.3.1-.5.2-.1.1-.3.2-.3.4-.1.2-.1.4-.1.6v4.6h-2v-7.6h1.9Z"/>
    <path class="cls-7" d="m375.53,346.4c-.2.4-.5.6-.7.8s-.6.2-1,.2c-.8,0-1.4-.3-1.8-.9-.4-.6-.6-1.6-.6-3.1s.2-2.5.6-3.1,1-1,1.8-1c.4,0,.7.1,1,.2.3.1.5.4.7.7h0v-3.2h2v10.2h-1.9l-.1-.8h0Zm-1.7-1.1c.1.4.4.6.8.6s.7-.2.9-.6c.2-.4.2-1,.2-1.9s-.1-1.5-.2-1.9c-.1-.4-.4-.6-.9-.6-.4,0-.7.2-.8.6-.1.4-.2,1-.2,1.9s-.1,1.5.2,1.9Z"/>
    <path class="cls-7" d="m350.33,351.3c.9,0,1.5.2,2,.6s.7,1.1.7,2c0,.7-.1,1.2-.4,1.7s-.7.7-1.3.8h0c.5.1.9.2,1.1.5.2.3.4.7.4,1.2v1.4c0,.5,0,1,.1,1.2.1.3.2.5.4.6v.1h-2.2c-.1-.1-.2-.3-.2-.5s0-.4-.1-.6l-.1-2c0-.4-.1-.7-.3-.9-.2-.2-.5-.3-.9-.3h-.9v4.3h-2v-10.2l3.7.1h0Zm-.8,4.4c.5,0,.9-.1,1.1-.4.3-.2.4-.6.4-1.2,0-.9-.5-1.4-1.4-1.4h-1v2.9l.9.1h0Z"/>
    <path class="cls-7" d="m354.13,355.9c.1-.5.3-.9.5-1.3.2-.3.5-.6.9-.8s.9-.3,1.4-.3c.6,0,1.1.1,1.5.2.4.2.7.4.9.8s.4.8.5,1.3.1,1.1.1,1.8,0,1.2-.2,1.7c-.1.5-.3.9-.5,1.3-.2.3-.5.6-.9.8s-.9.2-1.4.2c-.6,0-1.1-.1-1.5-.2s-.7-.4-.9-.7c-.2-.3-.4-.8-.5-1.3s-.1-1.1-.1-1.8c.1-.6.2-1.2.2-1.7Zm1.9,2.8c0,.3.1.6.1.9s.2.4.3.6.3.2.6.2c.4,0,.7-.2.8-.6s.2-1.1.2-2.1-.1-1.6-.2-2.1c-.1-.4-.4-.6-.8-.6-.2,0-.4.1-.6.2s-.2.3-.3.6c-.1.3-.1.5-.1.9v2Z"/>
    <path class="cls-7" d="m360.83,355.9c.1-.5.3-.9.5-1.3.2-.3.5-.6.9-.8s.9-.3,1.4-.3c.6,0,1.1.1,1.5.2.4.2.7.4.9.8s.4.8.5,1.3.1,1.1.1,1.8,0,1.2-.2,1.7c-.1.5-.3.9-.5,1.3-.2.3-.5.6-.9.8-.4.2-.9.2-1.4.2-.6,0-1.1-.1-1.5-.2s-.7-.4-.9-.7c-.2-.3-.4-.8-.5-1.3s-.1-1.1-.1-1.8c-.1-.6.2-1.2.2-1.7Zm1.7,2.8c0,.3.1.6.1.9s.2.4.3.6.3.2.6.2c.4,0,.7-.2.8-.6s.2-1.1.2-2.1-.1-1.6-.2-2.1c-.1-.4-.4-.6-.8-.6-.2,0-.4.1-.6.2s-.2.3-.3.6c-.1.3-.1.5-.1.9v2Z"/>
    <path class="cls-7" d="m369.53,353.8v.8h0c.2-.4.5-.6.8-.8.3-.1.7-.2,1.1-.2.5,0,.8.1,1.1.3.3.2.5.5.6.9h0c.1-.4.4-.7.7-.9.3-.2.7-.3,1.2-.3.7,0,1.1.2,1.5.6.3.4.5,1,.5,1.7v5.6h-2v-5.4c0-.3-.1-.6-.2-.7-.1-.2-.3-.3-.6-.3s-.6.1-.8.3c-.2.2-.3.5-.3,1v5h-2v-5.4c0-.3-.1-.6-.2-.7-.1-.2-.3-.3-.6-.3s-.6.1-.8.3c-.2.2-.3.5-.3,1v5h-2v-7.7l2.3.2h0Z"/>
    <path class="cls-7" d="m469.53,302h-3.1v2.1h3v1.5h-3v2.4h3.3v1.5h-5.1v-9h5l-.1,1.5h0Z"/>
    <path class="cls-7" d="m472.13,302.7v.7h0c.2-.3.5-.5.7-.7.3-.1.6-.2,1-.2s.7.1,1,.3.5.5.5.8h0c.1-.4.4-.6.6-.8.3-.2.6-.3,1-.3.6,0,1,.2,1.3.5s.4.8.4,1.5v4.9h-1.7v-4.7c0-.3,0-.5-.2-.6-.1-.1-.3-.2-.5-.2-.3,0-.5.1-.7.3s-.2.5-.2.9v4.4h-1.7v-4.7c0-.3,0-.5-.2-.6-.1-.1-.3-.2-.5-.2-.3,0-.5.1-.7.3s-.2.5-.2.9v4.4h-1.5v-6.7l1.6-.2h0Z"/>
    <path class="cls-7" d="m481.33,306.8v.6c0,.2.1.4.1.5s.1.3.3.4c.1.1.2.1.4.1.3,0,.5-.1.6-.3s.2-.5.3-1h1.5c0,.8-.2,1.4-.6,1.8-.4.4-1,.6-1.8.6-.6,0-1.1-.1-1.5-.3s-.6-.5-.8-.8-.3-.7-.3-1.1-.1-.9-.1-1.3c0-.5,0-.9.1-1.3s.2-.8.4-1.1.5-.6.8-.8.8-.3,1.4-.3c.5,0,.9.1,1.2.2.3.1.6.4.8.7s.3.6.4,1.1.1.9.1,1.4v.4h-3.3v.5h0Zm1.8-2.2c0-.2-.1-.4-.1-.5s-.1-.2-.3-.3-.3-.1-.4-.1-.3,0-.4.1c-.1.1-.2.2-.3.3s-.1.3-.1.4v.8h1.8c-.2-.3-.2-.5-.2-.7Z"/>
    <path class="cls-7" d="m487.13,302.7v.9h0c.2-.3.4-.6.6-.8s.5-.3.9-.3h.4v1.6h-.6c-.1,0-.3,0-.5.1-.1,0-.3.1-.4.2-.1.1-.2.2-.2.4s-.1.3-.1.6v4h-1.6v-6.7h1.5Z"/>
    <path class="cls-7" d="m489.53,304.6c0-.4.1-.7.2-1,.1-.3.3-.5.5-.6.2-.2.5-.3.8-.4.3-.1.6-.1.9-.1.5,0,.9,0,1.2.1s.6.2.7.4c.2.2.3.4.4.7.1.3.1.5.1.8v4.2c0,.1.1.4.2.6h-1.6c-.1-.1-.1-.2-.1-.3s-.1-.2-.1-.4h0c-.2.4-.4.6-.7.7s-.6.2-1,.2c-.3,0-.5,0-.8-.2-.2-.1-.4-.2-.5-.4s-.2-.4-.3-.6-.1-.5-.1-.7c0-.3,0-.6.1-.8.1-.2.2-.4.3-.6s.3-.3.5-.4.5-.2.8-.3l1-.3c.3-.1.4-.2.5-.3s.1-.3.1-.5c0-.3-.1-.5-.2-.6-.1-.1-.3-.2-.6-.2s-.5.1-.6.2c-.1.1-.2.4-.2.6v.2h-1.5Zm2.8,1.7c-.1,0-.2.1-.4.1-.4.1-.6.2-.8.4-.1.2-.2.4-.2.7s0,.5.1.7.3.3.5.3c.1,0,.2,0,.4-.1s.2-.1.3-.2.2-.2.3-.3.1-.3.1-.5v-1.3c-.1,0-.1.1-.3.2Z"/>
    <path class="cls-7" d="m497.33,300.5v8.9h-1.7v-8.9h1.7Z"/>
    <path class="cls-7" d="m501.83,308.7c-.2.3-.4.5-.6.7-.2.1-.5.2-.9.2-.7,0-1.2-.3-1.6-.8-.4-.5-.5-1.4-.5-2.7,0-1.2.2-2.1.5-2.7.3-.5.8-.8,1.6-.8.3,0,.6.1.8.2.2.1.4.3.6.6h0v-2.9h1.7v8.9h-1.7l.1-.7h0Zm-1.7-1c.1.4.4.6.7.6.4,0,.6-.2.7-.6.1-.4.2-.9.2-1.6s-.1-1.3-.2-1.6c-.1-.4-.4-.6-.7-.6-.4,0-.6.2-.7.6-.1.4-.2.9-.2,1.6s.1,1.2.2,1.6Z"/>
    <path class="cls-7" d="m472.53,313l1.3,6.3h0l1.3-6.3h2.7v8.9h-1.6v-7.1h0l-1.6,7.1h-1.4l-1.6-7.1h0v7.1h-1.6v-8.9h2.5Z"/>
    <path class="cls-7" d="m480.33,319.3v.6c0,.2.1.4.1.5s.1.3.3.4c.1.1.2.1.4.1.3,0,.5-.1.6-.3.1-.2.2-.5.3-1h1.5c0,.8-.2,1.4-.6,1.8-.4.4-1,.6-1.8.6-.6,0-1.1-.1-1.5-.3s-.6-.5-.8-.8-.3-.7-.3-1.1-.1-.9-.1-1.3c0-.5,0-.9.1-1.3s.2-.8.4-1.1c.2-.3.5-.6.8-.8.3-.2.8-.3,1.4-.3.5,0,.9.1,1.2.2s.6.4.8.7c.2.3.3.6.4,1.1s.1.9.1,1.4v.4h-3.3v.5h0Zm1.8-2.2c0-.2-.1-.4-.1-.5s-.1-.2-.3-.3c-.2-.1-.3-.1-.4-.1s-.3,0-.4.1c-.1.1-.2.2-.3.3-.1.1-.1.3-.1.4v.8h1.8c-.2-.3-.2-.5-.2-.7Z"/>
    <path class="cls-7" d="m488.03,321.2c-.2.3-.4.5-.6.7-.2.1-.5.2-.9.2-.7,0-1.2-.3-1.6-.8-.4-.5-.5-1.4-.5-2.7,0-1.2.2-2.1.5-2.7.3-.5.9-.8,1.6-.8.3,0,.6.1.8.2s.4.3.6.6h0v-2.8h1.7v8.9h-1.6v-.8h0Zm-1.7-1c.1.4.4.6.7.6.4,0,.6-.2.7-.6.1-.4.2-.9.2-1.6s-.1-1.3-.2-1.6c-.1-.3-.4-.6-.7-.6-.4,0-.6.2-.7.6-.1.4-.2.9-.2,1.6s0,1.2.2,1.6Z"/>
    <path class="cls-7" d="m492.53,312.9v1.5h-1.7v-1.5h1.7Zm0,2.3v6.7h-1.7v-6.7h1.7Z"/>
    <path class="cls-7" d="m493.53,317c0-.4.1-.7.2-1s.3-.5.5-.6c.2-.2.5-.3.8-.4s.6-.1.9-.1c.5,0,.9,0,1.2.1s.6.2.7.4c.2.2.3.4.4.7.1.3.1.5.1.8v4.2c0,.1.1.4.2.6h-1.7c-.1-.1-.1-.2-.1-.3s-.1-.2-.1-.4h0c-.2.4-.4.6-.7.7-.3.1-.6.2-1,.2-.3,0-.5,0-.8-.2-.2-.1-.4-.2-.5-.4s-.2-.4-.3-.6-.1-.5-.1-.7c0-.3,0-.6.1-.8s.2-.4.3-.6.3-.3.5-.4.5-.2.8-.3l1-.3c.3-.1.4-.2.5-.3.1-.1.2-.3.2-.5,0-.3-.1-.5-.2-.6-.1-.1-.3-.2-.6-.2s-.5.1-.6.2-.2.4-.2.6v.2h-1.5Zm2.8,1.7c-.1,0-.2.1-.4.1-.4.1-.6.2-.8.4-.1.2-.2.4-.2.7s0,.5.1.7.3.3.5.3c.1,0,.2,0,.4-.1s.2-.1.3-.2.2-.2.3-.3.1-.3.1-.5v-1.3c-.1.1-.3.2-.3.2Z"/>
    <path class="cls-7" d="m474.13,327.6c0-.2-.1-.3-.2-.5-.1-.2-.2-.3-.3-.4s-.3-.1-.5-.1c-.4,0-.7.2-.9.7s-.3,1.3-.3,2.4v1.5c0,.5.1.8.2,1.1.1.3.2.5.4.7s.4.2.6.2c.1,0,.2,0,.4-.1s.2-.1.4-.3c.1-.1.2-.3.3-.4.1-.2.1-.4.1-.6v-.9h-1.2v-1.4h2.9v4.8h-1.4v-.8h0c-.2.4-.5.6-.8.7s-.7.2-1.1.2c-.5,0-1-.1-1.3-.3-.4-.2-.6-.5-.8-.9s-.3-.9-.4-1.5c-.1-.6-.1-1.3-.1-2,0-.8,0-1.4.1-2s.3-1,.5-1.4.5-.7.9-.9.9-.3,1.4-.3c1,0,1.7.2,2.1.7.4.5.6,1.2.6,2.1h-1.7c.1,0,.1-.2.1-.3Z"/>
    <path class="cls-7" d="m478.53,327.6v.9h0c.2-.3.4-.6.6-.8s.5-.3.9-.3h.4v1.6h-.6c-.1,0-.3,0-.5.1-.1,0-.3.1-.4.2-.1.1-.2.2-.3.4s-.1.3-.1.6v4h-1.7v-6.7h1.7Z"/>
    <path class="cls-7" d="m480.83,329.5c.1-.4.2-.8.5-1.1.2-.3.5-.5.8-.7.3-.1.8-.2,1.2-.2.5,0,.9.1,1.3.2.3.1.6.4.8.7s.3.7.4,1.1.1,1,.1,1.5c0,.6,0,1.1-.1,1.5s-.2.8-.5,1.1-.5.5-.8.7c-.3.1-.8.2-1.2.2-.5,0-.9-.1-1.3-.2-.3-.1-.6-.4-.8-.6-.2-.3-.3-.7-.4-1.1-.1-.4-.1-1-.1-1.5-.2-.7.1-1.2.1-1.6Zm1.7,2.4c0,.3.1.5.1.8s.2.4.3.5.2.2.4.2c.4,0,.6-.2.7-.5.1-.3.2-1,.2-1.8s-.1-1.4-.2-1.8c-.1-.4-.5-.5-.8-.5-.2,0-.4.1-.5.2s-.2.3-.3.5-.1.5-.1.8v1c.2,0,.2.3.2.6Z"/>
    <path class="cls-7" d="m490.33,333.6c-.2.3-.4.6-.7.7-.3.1-.6.2-1,.2-.5,0-1-.1-1.3-.4-.3-.3-.4-.8-.4-1.4v-5h1.7v4.6c0,.4.1.6.2.7.1.1.3.2.6.2.6,0,.9-.4.9-1.1v-4.5h1.7v6.7h-1.6l-.1-.7h0Z"/>
    <path class="cls-7" d="m494.53,327.6v.7h0c.2-.3.4-.5.6-.7s.4-.2.9-.2c.7,0,1.2.3,1.6.8.3.5.5,1.5.5,2.7s-.2,2.1-.5,2.7c-.3.5-.8.8-1.6.8-.3,0-.6-.1-.8-.2-.2-.1-.4-.3-.6-.6h0v2.8h-1.7v-8.9l1.6.1h0Zm.3,5c.1.4.4.6.7.6.4,0,.6-.2.7-.6.1-.4.2-.9.2-1.6s-.1-1.3-.2-1.6-.4-.6-.7-.6c-.4,0-.6.2-.7.6-.1.4-.2.9-.2,1.6s-.1,1.3.2,1.6Z"/>
    <path class="cls-7" d="m402.13,165.1h-4.5v3h4.3v2.1h-4.3v3.4h4.7v2.1h-7.3v-12.7h7.1v2.1h0Z"/>
    <path class="cls-7" d="m406.03,166.1v1h0c.3-.4.7-.8,1-.9.4-.2.9-.3,1.4-.3.6,0,1,.1,1.4.4.4.3.6.6.8,1.1h0c.2-.5.5-.9.9-1.1s.9-.4,1.5-.4c.8,0,1.4.2,1.8.7.4.5.6,1.2.6,2.1v7h-2.5v-6.7c0-.4-.1-.7-.2-.9-.1-.2-.4-.3-.7-.3-.4,0-.7.1-.9.4-.2.3-.4.7-.4,1.2v6.3h-2.5v-6.7c0-.4-.1-.7-.2-.9-.1-.2-.4-.3-.7-.3-.4,0-.7.1-.9.4-.2.3-.4.7-.4,1.2v6.3h-2.4v-9.6h2.4Z"/>
    <path class="cls-7" d="m419.13,172c0,.3,0,.6.1.8s.1.5.2.7c.1.2.2.4.4.5.1.1.3.2.6.2.4,0,.7-.1.9-.4.2-.3.3-.8.4-1.4h2.2c0,1.1-.4,2-.9,2.6s-1.4.9-2.6.9c-.9,0-1.6-.1-2.1-.4s-.9-.7-1.1-1.2-.4-1-.4-1.6-.1-1.2-.1-1.8,0-1.3.1-1.9c.1-.6.3-1.1.5-1.6.3-.5.6-.8,1.1-1.1s1.2-.4,2-.4c.7,0,1.3.1,1.8.4.5.2.8.6,1.1,1s.4.9.5,1.5.1,1.3.1,2v.6h-4.9l.1.6h0Zm2.4-3.2c0-.3-.1-.5-.2-.7-.1-.2-.2-.3-.4-.4-.2-.1-.4-.1-.6-.1s-.5.1-.6.2c-.2.1-.3.3-.4.4-.1.2-.2.4-.2.6s-.1.4-.1.7v.4h2.5v-1.1Z"/>
    <path class="cls-7" d="m427.53,166.1v1.3h0c.2-.5.5-.8.9-1.1s.8-.4,1.3-.4h.4v2.4h-.8c-.2,0-.4,0-.6.1s-.4.2-.6.3-.3.3-.4.5c-.1.2-.2.5-.2.8v5.8h-2.5v-9.6l2.5-.1h0Z"/>
    <path class="cls-7" d="m431.33,168.8c0-.6.1-1,.3-1.4s.4-.7.7-.9.7-.4,1.1-.5c.4-.1.9-.1,1.3-.1.7,0,1.3.1,1.8.2s.8.3,1,.6.4.6.5.9c.1.4.1.8.1,1.2v5c0,.4,0,.8.1,1.1s.1.5.2.8h-2.4c-.1-.1-.1-.3-.2-.5-.1-.2-.1-.3-.1-.5h0c-.3.5-.6.8-1,1s-.9.2-1.5.2c-.4,0-.8-.1-1.1-.2-.3-.1-.5-.4-.7-.6-.2-.2-.3-.6-.4-.9-.1-.3-.1-.6-.1-1s0-.8.1-1.2.2-.6.4-.8.5-.4.8-.6c.3-.1.7-.3,1.1-.4l1.4-.4c.4-.1.6-.2.8-.4s.2-.4.2-.7c0-.4-.1-.7-.3-.9s-.5-.3-.9-.3-.7.1-.9.3-.3.5-.3.9v.3h-2.2l.2-.2h0Zm3.8,2.4c-.2.1-.4.1-.5.2-.5.1-.9.3-1.1.5s-.3.6-.3,1,.1.7.2.9c.1.3.4.4.7.4.2,0,.3,0,.5-.1s.3-.1.5-.3.3-.3.4-.5.1-.4.1-.7v-1.9c-.1.3-.3.4-.5.5Z"/>
    <path class="cls-7" d="m442.33,162.9v12.7h-2.5v-12.7h2.5Z"/>
    <path class="cls-7" d="m449.03,174.7c-.3.4-.6.8-.9.9-.3.2-.8.3-1.3.3-1,0-1.8-.4-2.2-1.2s-.7-2.1-.7-3.8.2-3.1.7-3.9c.5-.8,1.2-1.2,2.2-1.2.5,0,.9.1,1.2.3s.6.5.9.9h0v-4h2.5v12.7h-2.4v-1h0Zm-2.5-1.4c.2.5.5.8,1,.8s.9-.3,1.1-.8.2-1.3.2-2.4-.1-1.8-.2-2.4c-.1-.6-.5-.8-1.1-.8-.5,0-.9.3-1,.8s-.2,1.3-.2,2.4.2,1.8.2,2.4Z"/>
    <path class="cls-7" d="m406.33,180.8l1.8,9h0l1.8-9h3.8v12.7h-2.4v-10.2h0l-2.3,10.2h-2l-2.3-10.2h0v10.2h-2.2v-12.7h3.8Z"/>
    <path class="cls-7" d="m417.53,189.9c0,.3,0,.6.1.8s.1.5.2.7c.1.2.2.4.4.5.1.1.3.2.6.2.4,0,.7-.1.9-.4.2-.3.3-.8.4-1.4h2.2c0,1.1-.4,2-.9,2.6s-1.4.9-2.6.9c-.9,0-1.6-.1-2.1-.4s-.9-.7-1.1-1.2-.4-1-.4-1.6-.1-1.2-.1-1.8,0-1.3.1-1.9c.1-.6.3-1.1.5-1.6.3-.5.6-.8,1.1-1.1s1.2-.4,2-.4c.7,0,1.3.1,1.8.4.5.2.8.6,1.1,1s.4.9.5,1.5.1,1.3.1,2v.6h-4.9l.1.6h0Zm2.6-3.3c0-.3-.1-.5-.2-.7-.1-.2-.2-.3-.4-.4-.2-.1-.4-.1-.6-.1s-.5.1-.6.2c-.2.1-.3.3-.4.4-.1.2-.2.4-.2.6s-.1.4-.1.7v.4h2.5v-1.1Z"/>
    <path class="cls-7" d="m428.83,192.5c-.3.4-.6.8-.9.9-.3.2-.8.3-1.3.3-1,0-1.8-.4-2.2-1.2s-.7-2.1-.7-3.8.2-3.1.7-3.9c.5-.8,1.2-1.2,2.2-1.2.5,0,.9.1,1.2.3s.6.5.9.9h0v-4h2.5v12.7h-2.4v-1h0Zm-2.5-1.4c.2.5.5.8,1,.8s.9-.3,1.1-.8c.2-.5.2-1.3.2-2.4s-.1-1.8-.2-2.4c-.1-.6-.5-.8-1.1-.8-.5,0-.9.3-1,.8s-.2,1.3-.2,2.4,0,1.8.2,2.4Z"/>
    <path class="cls-7" d="m435.33,180.6v2.1h-2.5v-2.1h2.5Zm0,3.3v9.6h-2.5v-9.6h2.5Z"/>
    <path class="cls-7" d="m437.13,186.6c0-.6.1-1,.3-1.4s.4-.7.7-.9.7-.4,1.1-.5.9-.1,1.3-.1c.7,0,1.3.1,1.8.2s.8.3,1,.6.4.6.5.9c.1.4.1.8.1,1.2v5c0,.4,0,.8.1,1.1s.1.5.2.8h-2.4c-.1-.1-.1-.3-.2-.5-.1-.2-.1-.3-.1-.5h0c-.3.5-.6.8-1,1s-.9.2-1.5.2c-.4,0-.8-.1-1.1-.2-.3-.1-.5-.4-.7-.6-.2-.2-.3-.6-.4-.9-.1-.3-.1-.6-.1-1s0-.8.1-1.2.2-.6.4-.8.5-.4.8-.6c.3-.1.7-.3,1.1-.4l1.4-.4c.4-.1.6-.2.8-.4s.2-.4.2-.7c0-.4-.1-.7-.3-.9s-.5-.3-.9-.3-.7.1-.9.3-.3.5-.3.9v.3h-2.2l.2-.2h0Zm3.9,2.4c-.2.1-.4.1-.5.2-.5.1-.9.3-1.1.5s-.3.6-.3,1,.1.7.2.9c.1.3.4.4.7.4.2,0,.3,0,.5-.1s.3-.1.5-.3.3-.3.4-.5.1-.4.1-.7v-1.9c-.2.3-.4.4-.5.5Z"/>
    <path class="cls-7" d="m408.53,201.6c0-.2-.1-.5-.3-.7s-.3-.4-.5-.5-.4-.2-.7-.2c-.6,0-1.1.4-1.3,1-.3.7-.4,1.8-.4,3.4,0,.8,0,1.4.1,2.1,0,.6.1,1.1.3,1.6.1.4.3.8.5,1s.5.4.9.4c.1,0,.3,0,.5-.1s.4-.2.5-.4c.2-.2.3-.4.4-.6.1-.3.2-.6.2-.9v-1.3h-1.7v-1.9h4.1v6.9h-1.9v-1.2h0c-.3.5-.7.9-1.1,1.1-.4.2-1,.3-1.6.3-.8,0-1.4-.1-1.9-.4s-.9-.7-1.2-1.3c-.3-.6-.5-1.3-.6-2.1s-.1-1.8-.1-2.9.1-2,.2-2.8c.1-.8.4-1.5.7-2s.8-.9,1.3-1.2,1.2-.4,2-.4c1.4,0,2.4.4,3,1,.6.7.9,1.7.9,3h-2.5c.2-.4.2-.6.2-.9Z"/>
    <path class="cls-7" d="m415.13,201.7v1.3h0c.2-.5.5-.8.9-1.1s.8-.4,1.3-.4h.4v2.4h-.8c-.2,0-.4,0-.6.1s-.4.2-.6.3-.3.3-.4.5c-.1.2-.2.5-.2.8v5.8h-2.5v-9.6l2.5-.1h0Z"/>
    <path class="cls-7" d="m418.53,204.4c.1-.6.3-1.2.6-1.6.3-.4.7-.7,1.2-1s1.1-.3,1.8-.3,1.4.1,1.8.3c.5.2.9.5,1.2.9s.5,1,.6,1.6.2,1.4.2,2.2-.1,1.5-.2,2.2-.3,1.2-.6,1.6-.7.7-1.2.9-1.1.3-1.8.3-1.4-.1-1.8-.3c-.4-.2-.9-.5-1.2-.9s-.5-.9-.6-1.6-.2-1.4-.2-2.2c.2-.8.2-1.5.2-2.1Zm2.5,3.5c0,.4.1.8.2,1.1.1.3.2.5.4.7s.4.2.7.2c.5,0,.8-.3,1-.8s.3-1.4.3-2.6-.1-2.1-.3-2.6-.5-.8-1-.8c-.3,0-.5.1-.7.2-.2.1-.3.4-.4.7-.1.3-.1.6-.2,1.1s0,.9,0,1.4-.2,1,0,1.4Z"/>
    <path class="cls-7" d="m432.13,210.2c-.3.5-.6.8-1,1s-.9.3-1.4.3c-.8,0-1.4-.2-1.8-.6-.4-.4-.6-1.1-.6-2.1v-7.1h2.5v6.6c0,.5.1.9.2,1,.1.1.4.3.8.3.9,0,1.3-.5,1.3-1.6v-6.4h2.5v9.6h-2.4l-.1-1h0Z"/>
    <path class="cls-7" d="m438.53,201.7v1h0c.3-.4.6-.8.9-1,.3-.2.8-.3,1.3-.3,1,0,1.8.4,2.2,1.2.5.8.7,2.1.7,3.9s-.2,3.1-.7,3.8c-.5.8-1.2,1.2-2.2,1.2-.5,0-.9-.1-1.2-.3-.3-.2-.6-.4-.9-.8h0v4h-2.5v-12.7h2.4Zm.5,7.2c.2.5.5.8,1.1.8.5,0,.9-.3,1-.8s.2-1.3.2-2.4-.1-1.8-.2-2.4c-.1-.6-.5-.8-1-.8s-.9.3-1.1.8c-.2.5-.2,1.3-.2,2.4-.3,1.1,0,1.9.2,2.4Z"/>
    <path class="cls-7" d="m402.53,410c-.1-.3-.4-.4-.8-.4-.2,0-.4.1-.6.2s-.3.3-.3.6-.1.6-.2,1.1c-.1.5,0,1,0,1.6,0,.7,0,1.2.1,1.6,0,.4.1.7.2,1,.1.2.2.4.4.5s.3.1.5.1.3,0,.4-.1c.1,0,.3-.2.4-.3.1-.1.2-.4.2-.7.1-.3.1-.7.1-1.2h1.8c0,.5,0,.9-.1,1.4-.1.4-.2.8-.4,1.1-.2.3-.5.6-.9.8-.4.2-.9.3-1.4.3-.7,0-1.2-.1-1.6-.3-.4-.2-.7-.5-.9-.9s-.4-.9-.4-1.5-.1-1.2-.1-1.9,0-1.3.1-1.9.2-1.1.4-1.5.5-.7.9-1c.4-.2.9-.3,1.6-.3.6,0,1.1.1,1.5.3s.6.5.8.8.3.7.3,1c0,.4.1.7.1,1h-1.8c0-.6-.3-1.1-.3-1.4Z"/>
    <path class="cls-7" d="m405.33,412.5c.1-.4.2-.8.5-1.1.2-.3.5-.5.8-.7.3-.1.8-.2,1.2-.2.5,0,.9.1,1.3.2.3.1.6.4.8.7.2.3.3.7.4,1.1s.1,1,.1,1.5c0,.6,0,1.1-.1,1.5s-.2.8-.5,1.1c-.2.3-.5.5-.8.6s-.8.2-1.2.2c-.5,0-.9-.1-1.3-.2-.3-.1-.6-.4-.8-.6-.2-.3-.3-.7-.4-1.1-.1-.4-.1-1-.1-1.5.1-.6.1-1.1.1-1.5Zm1.7,2.4c0,.3.1.5.1.8s.2.4.3.5.3.2.5.2c.4,0,.6-.2.7-.5.1-.3.2-1,.2-1.8s-.1-1.4-.2-1.8c-.1-.4-.4-.5-.7-.5-.2,0-.4.1-.5.2s-.2.3-.3.5-.1.5-.1.8v1.6Z"/>
    <path class="cls-7" d="m413.13,408.4v8.9h-1.8v-8.9h1.8Z"/>
    <path class="cls-7" d="m416.03,408.4v8.9h-1.7v-8.9h1.7Z"/>
    <path class="cls-7" d="m418.53,414.8v.6c0,.2.1.4.1.5.1.1.1.3.3.4.1.1.2.1.4.1.3,0,.5-.1.6-.3.1-.2.2-.5.3-1h1.5c0,.8-.2,1.4-.6,1.8-.4.4-1,.6-1.8.6-.6,0-1.1-.1-1.5-.3s-.6-.5-.8-.8-.3-.7-.3-1.1-.1-.9-.1-1.3c0-.5,0-.9.1-1.3s.2-.8.4-1.1c.2-.3.5-.6.8-.8.4-.2.8-.3,1.4-.3.5,0,.9.1,1.2.2s.6.4.8.7c.2.3.3.6.4,1.1.1.5.1.9.1,1.4v.4h-3.3v.5h0Zm1.8-2.3c0-.2-.1-.4-.1-.5s-.1-.2-.3-.3c-.1-.1-.3-.1-.4-.1-.2,0-.3,0-.4.1s-.2.2-.3.3c-.1.1-.1.3-.1.4v.8h1.8c-.2-.2-.2-.5-.2-.7Z"/>
    <path class="cls-7" d="m427.83,417c0,.9-.2,1.5-.6,2s-1.1.6-2.1.6c-.7,0-1.3-.2-1.7-.5s-.6-.8-.6-1.3h1.6c0,.2.1.4.3.5.1.1.2.1.3.1h.3c.4,0,.6-.1.7-.3.1-.2.2-.5.2-.8v-.9h0c-.2.2-.4.5-.6.6s-.5.2-.8.2c-.7,0-1.2-.3-1.5-.8-.4-.5-.5-1.4-.5-2.6,0-.4,0-.8.1-1.2,0-.4.1-.8.3-1.1.1-.3.4-.6.6-.8.2-.2.6-.3,1.1-.3.2,0,.5.1.8.2s.5.4.6.7h0v-.8h1.6l-.1,6.5h0Zm-3.5-2.1c0,.2.1.4.1.6.1.2.1.3.3.4s.3.1.4.1.3,0,.5-.1.2-.2.3-.4c.1-.2.1-.4.1-.6v-.8c0-.8-.1-1.4-.2-1.7-.1-.3-.4-.5-.7-.5-.2,0-.4,0-.5.1s-.2.2-.3.4c-.1.2-.1.4-.1.8v1.1c.1.1.1.3.1.6Z"/>
    <path class="cls-7" d="m430.53,408.3v1.5h-1.7v-1.5h1.7Zm0,2.3v6.7h-1.7v-6.7h1.7Z"/>
    <path class="cls-7" d="m431.53,412.5c0-.4.1-.7.2-1s.3-.5.5-.6c.2-.2.5-.3.8-.4s.6-.1.9-.1c.5,0,.9,0,1.2.1s.6.2.7.4c.2.2.3.4.4.6.1.2.1.5.1.8v4.2c0,.2.1.4.2.6h-1.6c-.1-.1-.1-.2-.1-.3s-.1-.2-.1-.4h0c-.2.4-.4.6-.7.7s-.6.2-1,.2c-.3,0-.5,0-.8-.2-.2-.1-.4-.2-.5-.4-.1-.2-.2-.4-.3-.6s-.1-.5-.1-.7c0-.3,0-.6.1-.8.1-.2.2-.4.3-.6s.3-.3.5-.4.5-.2.8-.3l1-.3c.3-.1.4-.2.5-.3.1-.1.1-.3.1-.5,0-.3-.1-.5-.2-.6-.1-.1-.3-.2-.6-.2s-.5.1-.6.2-.2.4-.2.6v.2l-1.5.1h0Zm3,1.7c-.1,0-.2.1-.4.1-.4.1-.6.2-.8.4-.1.2-.2.4-.2.7s0,.5.1.7.3.3.5.3c.1,0,.2,0,.4-.1s.2-.1.3-.2.2-.2.3-.3.1-.3.1-.5v-1.3c0,.1-.3.1-.3.2Z"/>
    <path class="cls-7" d="m439.53,408.7v1.9h1v1.2h-1v3.6c0,.3,0,.5.1.6s.2.2.5.2h.4v1.2h-1.2c-.3,0-.6,0-.8-.1-.2,0-.4-.1-.5-.3s-.2-.3-.2-.5-.1-.5-.1-.9v-3.8h-.9v-1.2h.9v-1.9h1.8Z"/>
    <path class="cls-7" d="m442.53,414.8v.6c0,.2.1.4.1.5.1.1.1.3.3.4.1.1.2.1.4.1.3,0,.5-.1.6-.3.1-.2.2-.5.3-1h1.5c0,.8-.2,1.4-.6,1.8-.4.4-1,.6-1.8.6-.6,0-1.1-.1-1.5-.3-.4-.2-.6-.5-.8-.8s-.3-.7-.3-1.1-.1-.9-.1-1.3c0-.5,0-.9.1-1.3s.2-.8.4-1.1c.2-.3.5-.6.8-.8.4-.2.8-.3,1.4-.3.5,0,.9.1,1.2.2s.6.4.8.7c.2.3.3.6.4,1.1.1.5.1.9.1,1.4v.4h-3.4l.1.5h0Zm1.8-2.3c0-.2-.1-.4-.1-.5s-.1-.2-.3-.3c-.1-.1-.3-.1-.4-.1-.2,0-.3,0-.4.1s-.2.2-.3.3c-.1.1-.1.3-.1.4v.8h1.8c-.2-.2-.2-.5-.2-.7Z"/>
    <path class="cls-7" d="m403.83,420.9c.8,0,1.3.2,1.8.6s.6,1,.6,1.7c0,.6-.1,1.1-.4,1.5s-.6.6-1.1.7h0c.5.1.8.2,1,.4.2.2.3.6.4,1.1v1.2c0,.5,0,.8.1,1.1,0,.2.2.4.3.5v.1h-2c-.1-.1-.1-.3-.2-.4s0-.3,0-.5v-1.7c0-.4-.1-.6-.3-.8-.2-.2-.4-.3-.8-.3h-1v3.8h-1.9v-8.9l3.5-.1h0Zm-.8,3.9c.4,0,.8-.1,1-.3.2-.2.4-.5.4-1,0-.8-.4-1.2-1.2-1.2h-.9v2.6l.7-.1h0Z"/>
    <path class="cls-7" d="m408.53,427.3v.6c0,.2.1.4.1.5.1.1.1.3.3.4.1.1.2.1.4.1.3,0,.5-.1.6-.3.1-.2.2-.5.3-1h1.5c0,.8-.2,1.4-.6,1.8-.4.4-1,.6-1.8.6-.6,0-1.1-.1-1.5-.3-.4-.2-.6-.5-.8-.8s-.3-.7-.3-1.1-.1-.9-.1-1.3c0-.5,0-.9.1-1.3s.2-.8.4-1.1c.2-.3.5-.6.8-.8.4-.2.8-.3,1.4-.3.5,0,.9.1,1.2.2s.6.4.8.7c.2.3.3.6.4,1.1.1.5.1.9.1,1.4v.4h-3.4l.1.5h0Zm1.8-2.3c0-.2-.1-.4-.1-.5s-.1-.2-.3-.3c-.1-.1-.3-.1-.4-.1-.2,0-.3,0-.4.1s-.2.2-.3.3c-.1.1-.1.3-.1.4v.8h1.8c0-.3-.2-.5-.2-.7Z"/>
    <path class="cls-7" d="m416.13,425c0-.2-.1-.3-.1-.4s-.1-.2-.2-.3c-.1-.1-.2-.1-.4-.1s-.4,0-.5.1-.2.2-.3.4c-.1.2-.1.4-.1.7v2.1c0,.3.1.5.1.7s.2.3.3.4.3.1.5.1c.3,0,.5-.1.6-.4.1-.2.2-.6.2-1.2h1.6c0,.9-.2,1.5-.6,2-.4.5-1,.7-2,.7-.4,0-.8,0-1.1-.2-.3-.1-.6-.3-.8-.6-.2-.3-.4-.6-.5-1.1s-.2-1-.2-1.7.1-1.3.2-1.7c.1-.5.3-.8.6-1.1.3-.3.5-.5.9-.6.3-.1.7-.2,1.1-.2.8,0,1.4.2,1.8.7s.6,1.1.6,1.9h-1.6c-.1.2-.1,0-.1-.2Z"/>
    <path class="cls-7" d="m418.53,424.9c.1-.4.2-.8.5-1.1.2-.3.5-.5.8-.7.3-.1.8-.2,1.2-.2.5,0,.9.1,1.3.2.3.1.6.4.8.7.2.3.3.7.4,1.1.1.4.1,1,.1,1.5,0,.6,0,1.1-.1,1.5s-.2.8-.5,1.1c-.2.3-.5.5-.8.6s-.8.2-1.2.2c-.5,0-.9-.1-1.3-.2-.3-.1-.6-.4-.8-.6-.2-.3-.3-.7-.4-1.1s-.1-1-.1-1.5c-.1-.5-.1-1,.1-1.5Zm1.6,2.5c0,.3.1.5.1.8s.2.4.3.5.3.2.5.2c.4,0,.6-.2.7-.5.1-.3.2-1,.2-1.8s-.1-1.4-.2-1.8-.4-.5-.7-.5c-.2,0-.4.1-.5.2s-.2.3-.3.5-.1.5-.1.8v1c0,.4-.1.3,0,.6Z"/>
    <path class="cls-7" d="m429.33,423.1l-1.7,6.7h-2l-1.7-6.7h1.8l1,4.8h0l.9-4.8h1.7Z"/>
    <path class="cls-7" d="m431.33,427.3v.6c0,.2.1.4.1.5.1.1.1.3.3.4.1.1.2.1.4.1.3,0,.5-.1.6-.3.1-.2.2-.5.3-1h1.6c0,.8-.2,1.4-.6,1.8s-1,.6-1.8.6c-.6,0-1.1-.1-1.5-.3-.4-.2-.6-.5-.8-.8s-.3-.7-.3-1.1-.1-.9-.1-1.3c0-.5,0-.9.1-1.3s.2-.8.4-1.1c.2-.3.5-.6.8-.8.4-.2.8-.3,1.4-.3.5,0,.9.1,1.2.2s.6.4.8.7c.2.3.3.6.4,1.1.1.5.1.9.1,1.4v.4h-3.4v.5h0Zm1.7-2.3c0-.2-.1-.4-.1-.5s-.1-.2-.3-.3c-.1-.1-.3-.1-.4-.1-.2,0-.3,0-.4.1-.1.1-.2.2-.3.3-.1.1-.1.3-.1.4v.8h1.8c-.2-.3-.2-.5-.2-.7Z"/>
    <path class="cls-7" d="m437.13,423.1v.9h0c.2-.3.4-.6.6-.8.2-.2.5-.3.9-.3h.4v1.6h-.6c-.1,0-.3,0-.5.1-.1,0-.3.1-.4.2s-.2.2-.3.4c-.1.1-.1.3-.1.6v4h-1.7v-6.7h1.7Z"/>
    <path class="cls-7" d="m440.33,430.7c.3,0,.5-.1.7-.2.1-.2.2-.4.2-.7l-1.9-6.7h1.8l1,4.6h0l.9-4.6h1.7l-1.6,6.3c-.1.6-.3,1-.4,1.4-.1.4-.3.6-.5.8-.2.2-.4.3-.7.4s-.6.1-1,.1h-.7v-1.3c.3-.1.5-.1.5-.1Z"/>
    <path class="cls-7" d="m410.53,435c-.1-.3-.4-.4-.8-.4-.2,0-.4.1-.6.2s-.3.3-.3.6-.1.6-.2,1.1c-.1.5,0,1,0,1.6,0,.7,0,1.2.1,1.6,0,.4.1.7.2,1,.1.2.2.4.4.5s.3.1.5.1.3,0,.4-.1c.1,0,.3-.2.4-.3.1-.1.2-.4.2-.7.1-.3.1-.7.1-1.2h1.8c0,.5,0,.9-.1,1.4-.1.4-.2.8-.4,1.1-.2.3-.5.6-.9.8-.4.2-.9.3-1.4.3-.7,0-1.2-.1-1.6-.3-.4-.2-.7-.5-.9-.9s-.4-.9-.4-1.5-.1-1.2-.1-1.9,0-1.3.1-1.9.2-1.1.4-1.5.5-.7.9-1c.4-.2.9-.3,1.6-.3.6,0,1.1.1,1.5.3.4.2.6.5.8.8s.3.7.3,1c0,.4.1.7.1,1h-1.8c.2-.7,0-1.1-.3-1.4Z"/>
    <path class="cls-7" d="m415.13,439.7v.6c0,.2.1.4.1.5.1.1.1.3.3.4.1.1.2.1.4.1.3,0,.5-.1.6-.3.1-.2.2-.5.3-1h1.5c0,.8-.2,1.4-.6,1.8-.4.4-1,.6-1.8.6-.6,0-1.1-.1-1.5-.3s-.6-.5-.8-.8-.3-.7-.3-1.1-.1-.9-.1-1.3c0-.5,0-.9.1-1.3s.2-.8.4-1.1c.2-.3.5-.6.8-.8.4-.2.8-.3,1.4-.3.5,0,.9.1,1.2.2s.6.4.8.7c.2.3.3.6.4,1.1.1.5.1.9.1,1.4v.4h-3.4l.1.5h0Zm1.7-2.2c0-.2-.1-.4-.1-.5s-.1-.2-.3-.3c-.1-.1-.3-.1-.4-.1-.2,0-.3,0-.4.1s-.2.2-.3.3c-.1.1-.1.3-.1.4v.8h1.8c-.2-.3-.2-.5-.2-.7Z"/>
    <path class="cls-7" d="m421.03,435.6v.8h0c.2-.3.4-.6.7-.7s.6-.2,1-.2c.5,0,1,.1,1.3.5.3.3.4.8.4,1.5v5h-1.7v-4.6c0-.4-.1-.6-.2-.7-.1-.1-.3-.2-.6-.2-.6,0-.9.4-.9,1.1v4.5h-1.7v-6.7l1.7-.3h0Z"/>
    <path class="cls-7" d="m427.53,433.7v1.9h1v1.2h-1v3.6c0,.3,0,.5.1.6s.2.2.5.2h.4v1.2h-1.2c-.3,0-.6,0-.8-.1-.2,0-.4-.1-.5-.3-.1-.2-.2-.3-.2-.5s-.1-.5-.1-.9v-3.8h-.9v-1.2h.9v-1.9h1.8Z"/>
    <path class="cls-7" d="m430.53,439.7v.6c0,.2.1.4.1.5.1.1.1.3.3.4.1.1.2.1.4.1.3,0,.5-.1.6-.3.1-.2.2-.5.3-1h1.5c0,.8-.2,1.4-.6,1.8-.4.4-1,.6-1.8.6-.6,0-1.1-.1-1.5-.3-.4-.2-.6-.5-.8-.8s-.3-.7-.3-1.1-.1-.9-.1-1.3c0-.5,0-.9.1-1.3s.2-.8.4-1.1c.2-.3.5-.6.8-.8.4-.2.8-.3,1.4-.3.5,0,.9.1,1.2.2s.6.4.8.7c.2.3.3.6.4,1.1.1.5.1.9.1,1.4v.4h-3.4l.1.5h0Zm1.6-2.2c0-.2-.1-.4-.1-.5s-.1-.2-.3-.3c-.1-.1-.3-.1-.4-.1-.2,0-.3,0-.4.1-.1.1-.2.2-.3.3-.1.1-.1.3-.1.4v.8h1.8c-.2-.3-.2-.5-.2-.7Z"/>
    <path class="cls-7" d="m436.33,435.6v.9h0c.2-.3.4-.6.6-.8.2-.2.5-.3.9-.3h.4v1.6h-.6c-.1,0-.3,0-.5.1-.1,0-.3.1-.4.2-.1.1-.2.2-.3.4-.1.1-.1.3-.1.6v4h-1.7v-6.7h1.7Z"/>
    <path class="cls-7" d="m130.23,739.5c0-.2-.1-.3-.1-.4s-.2-.2-.3-.3-.2-.1-.4-.1c-.4,0-.6.2-.8.6s-.2,1.1-.2,2v1.2c0,.4.1.7.1,1,.1.3.2.5.3.6s.3.2.5.2c.1,0,.2,0,.3-.1s.2-.1.3-.2.2-.2.2-.4c.1-.2.1-.3.1-.5v-.8h-1v-1.1h2.5v4.1h-1.1v-.7h0c-.2.3-.4.5-.7.6s-.6.2-.9.2c-.5,0-.9-.1-1.2-.2-.3-.2-.5-.4-.7-.8s-.3-.8-.3-1.3c-.1-.5-.1-1.1-.1-1.8,0-.6,0-1.2.1-1.7s.2-.9.4-1.2c.2-.3.5-.6.8-.7s.7-.2,1.2-.2c.8,0,1.5.2,1.8.6s.6,1,.6,1.8h-1.4c.1-.1.1-.3,0-.4Z"/>
    <path class="cls-7" d="m134.13,739.5v.8h0c.1-.3.3-.5.5-.7s.5-.2.8-.2h.2v1.4h-.8c-.1,0-.2.1-.3.2s-.2.2-.3.3-.1.3-.1.5v3.5h-1.5v-5.8h1.5Z"/>
    <path class="cls-7" d="m137.33,743.1v.5c0,.2.1.3.1.4.1.1.1.2.2.3.1.1.2.1.3.1.2,0,.4-.1.5-.3.1-.2.2-.5.2-.8h1.3c0,.7-.2,1.2-.5,1.5s-.9.5-1.6.5c-.5,0-.9-.1-1.2-.3-.3-.2-.5-.4-.7-.7-.1-.3-.2-.6-.3-1s0-.7,0-1.1,0-.8.1-1.1c.1-.4.2-.7.3-1s.4-.5.7-.7.7-.2,1.2-.2c.4,0,.8.1,1.1.2s.5.3.6.6c.2.2.3.6.3.9s.1.8.1,1.2v.3h-2.9l.2.7h0Zm1.5-1.9c0-.2-.1-.3-.1-.4s-.1-.2-.2-.3c-.1-.1-.2-.1-.4-.1s-.3,0-.4.1-.2.2-.2.3c-.1.1-.1.2-.1.4v.6h1.5c-.1-.3-.1-.5-.1-.6Z"/>
    <path class="cls-7" d="m142.33,743.1v.5c0,.2.1.3.1.4.1.1.1.2.2.3.1.1.2.1.3.1.2,0,.4-.1.6-.3.1-.2.2-.5.2-.8h1.3c0,.7-.2,1.2-.5,1.5s-.8.5-1.6.5c-.5,0-.9-.1-1.2-.3-.3-.2-.5-.4-.7-.7-.1-.3-.2-.6-.3-1s-.1-.7-.1-1.1,0-.8.1-1.1c.1-.4.2-.7.3-1,.2-.3.4-.5.7-.7s.7-.2,1.2-.2c.4,0,.8.1,1,.2.3.1.5.3.7.6.2.2.3.6.3.9s.1.8.1,1.2v.3h-2.9l.2.7h0Zm1.4-1.9c0-.2-.1-.3-.1-.4s-.1-.2-.2-.3c-.1-.1-.2-.1-.4-.1s-.3,0-.4.1-.2.2-.2.3-.1.2-.1.4v.6h1.5c0-.3-.1-.5-.1-.6Z"/>
    <path class="cls-7" d="m147.33,739.5v.7h0c.2-.3.4-.5.6-.6s.5-.2.9-.2c.5,0,.8.1,1.1.4.2.3.4.7.4,1.2v4.3h-1.5v-4c0-.3,0-.5-.1-.6s-.3-.2-.5-.2c-.5,0-.8.3-.8,1v3.8h-1.5v-5.8h1.4Z"/>
    <path class="cls-7" d="m129.83,748.4c.6,0,1.1.2,1.5.5s.5.8.5,1.5c0,.5-.1.9-.3,1.3s-.5.5-1,.6h0c.4.1.7.2.8.4.2.2.3.5.3.9v1.1c0,.4,0,.7.1.9,0,.2.1.4.3.4v.1h-1.5c-.1-.1-.1-.2-.2-.4-.1-.2,0-.3,0-.4v-1.5c0-.3-.1-.5-.2-.7s-.4-.3-.7-.3h-.9v3.2h-1.5v-7.6h2.8Zm-.5,3.3c.4,0,.7-.1.9-.3s.3-.5.3-.9c0-.7-.4-1.1-1.1-1.1h-.8v2.2l.7.1h0Z"/>
    <path class="cls-7" d="m132.83,751.8c.1-.4.2-.7.4-1,.2-.2.4-.5.7-.6s.6-.2,1.1-.2c.4,0,.8,0,1.1.2s.5.3.7.6c.2.2.3.6.4,1s.1.8.1,1.3,0,.9-.1,1.3-.2.7-.4,1c-.2.2-.4.4-.7.6s-.6.2-1.1.2c-.4,0-.8,0-1.1-.2-.3-.1-.5-.3-.7-.6-.2-.2-.3-.6-.4-1s-.1-.8-.1-1.3,0-.9.1-1.3Zm1.4,2.1c0,.2.1.5.1.6.1.2.1.3.2.4s.2.2.4.2c.3,0,.5-.2.6-.5s.2-.8.2-1.5-.1-1.2-.2-1.5-.3-.5-.6-.5c-.2,0-.3,0-.4.2-.1.1-.2.2-.2.4s-.1.4-.1.6v1.6Z"/>
    <path class="cls-7" d="m137.83,751.8c.1-.4.2-.7.4-1,.2-.2.4-.5.7-.6s.6-.2,1.1-.2c.4,0,.8,0,1.1.2s.5.3.7.6c.2.2.3.6.4,1s.1.8.1,1.3,0,.9-.1,1.3-.2.7-.4,1c-.2.2-.4.4-.7.6-.3.1-.6.2-1.1.2-.4,0-.8,0-1.1-.2s-.5-.3-.7-.6c-.2-.2-.3-.6-.4-1s-.1-.8-.1-1.3,0-.9.1-1.3Zm1.4,2.1c0,.2,0,.5.1.6s.1.3.2.4.2.2.4.2c.3,0,.5-.2.6-.5s.2-.8.2-1.5-.1-1.2-.2-1.5-.3-.5-.6-.5c-.2,0-.3,0-.4.2-.1.1-.2.2-.2.4s-.1.4-.1.6v1.6Z"/>
    <path class="cls-7" d="m144.33,750.2v.6h0c.2-.3.4-.5.6-.6s.5-.2.8-.2.6.1.9.2c.2.2.4.4.5.7h0c.1-.3.3-.5.6-.7s.6-.2.9-.2c.5,0,.9.2,1.1.4.2.3.4.7.4,1.3v4.2h-1.5v-4c0-.2,0-.4-.1-.6s-.2-.2-.4-.2-.4.1-.6.2-.2.4-.2.8v3.8h-1.5v-4c0-.2,0-.4-.1-.6s-.2-.2-.4-.2-.4.1-.6.2c-.1.2-.2.4-.2.8v3.8h-1.5v-5.8l1.3.1h0Z"/>
    <path class="cls-7" d="m415.13,297.7h1.5v6.4h2.7v1.3h-4.3l.1-7.7h0Z"/>
    <path class="cls-7" d="m420.03,301.2c.1-.4.2-.7.4-1s.4-.5.7-.6.6-.2,1.1-.2c.4,0,.8,0,1.1.2.3.1.5.3.7.6s.3.6.4,1c.1.4.1.8.1,1.3s0,.9-.1,1.3c-.1.4-.2.7-.4,1-.2.2-.4.4-.7.6-.3.2-.6.2-1.1.2-.4,0-.8,0-1.1-.2-.3-.2-.5-.3-.7-.6-.2-.2-.3-.6-.4-1s-.1-.8-.1-1.3c-.1-.5-.1-1,.1-1.3Zm1.3,2.1c0,.2,0,.5.1.6,0,.2.1.3.2.4.1.1.2.1.4.1.3,0,.5-.2.6-.5s.2-.8.2-1.5-.1-1.2-.2-1.5-.3-.5-.6-.5c-.2,0-.3,0-.4.1s-.2.2-.2.4-.1.4-.1.6v1.8Z"/>
    <path class="cls-7" d="m426.53,297.7v2.4h0c.2-.2.3-.4.5-.5s.4-.2.7-.2c.6,0,1,.2,1.3.7s.4,1.2.4,2.3-.1,1.8-.4,2.3-.7.7-1.3.7c-.3,0-.5,0-.8-.2s-.4-.3-.5-.6h0v.6h-1.4v-7.6l1.5.1h0Zm0,6.2c.1.3.3.5.6.5s.5-.2.6-.5.1-.8.1-1.4,0-1.1-.1-1.4c-.1-.3-.3-.5-.6-.5s-.5.2-.6.5-.1.8-.1,1.4.1,1.1.1,1.4Z"/>
    <path class="cls-7" d="m431.83,297.7v2.4h0c.2-.2.3-.4.5-.5s.4-.2.7-.2c.6,0,1,.2,1.3.7s.4,1.2.4,2.3-.1,1.8-.4,2.3-.7.7-1.3.7c-.3,0-.5,0-.8-.2s-.4-.3-.5-.6h0v.6h-1.4v-7.6l1.5.1h0Zm0,6.2c.1.3.3.5.6.5s.5-.2.6-.5.1-.8.1-1.4,0-1.1-.1-1.4-.3-.5-.6-.5-.5.2-.6.5-.1.8-.1,1.4.1,1.1.1,1.4Z"/>
    <path class="cls-7" d="m435.83,306.1c.3,0,.5-.1.6-.2s.2-.3.2-.6l-1.6-5.8h1.5l.9,4h0l.8-4h1.5l-1.4,5.4c-.1.5-.2.9-.4,1.2-.2.3-.3.5-.4.7-.1.2-.4.3-.6.3s-.5.1-.9.1h-.7v-1.1c.2,0,.5,0,.5,0Z"/>
    <path class="cls-7" d="m417.13,224.2c.1.2.3.4.7.4.2,0,.3,0,.4-.1.1-.1.2-.1.3-.3s.1-.2.1-.4v-1c0-.2-.1-.3-.1-.4-.1-.1-.2-.2-.3-.3s-.3-.1-.5-.1h-.4v-1h.5c.2,0,.3,0,.4-.1s.2-.2.3-.3.1-.2.1-.4v-.4c0-.4-.1-.6-.2-.8-.1-.1-.3-.2-.6-.2-.2,0-.3,0-.4.1-.1.1-.2.1-.2.3s-.1.2-.1.4v.5h-1.4c0-.8.2-1.3.6-1.7.4-.4.9-.6,1.7-.6.7,0,1.2.2,1.6.5.4.3.6.8.6,1.5,0,.5-.1.8-.3,1.1-.2.3-.5.5-.9.6h0c.5.1.8.3,1,.6.2.3.3.7.3,1.2,0,.3,0,.5-.1.8s-.2.5-.4.7-.4.4-.8.5c-.3.1-.8.2-1.3.2-.7,0-1.3-.2-1.6-.6-.4-.4-.5-1-.5-1.7h1.5c0,.4,0,.7,0,1Z"/>
    <path class="cls-7" d="m420.83,220.3c0-.5.1-.9.3-1.3s.4-.7.7-.9c.3-.2.8-.3,1.3-.3s.9.1,1.1.2c.3.1.5.3.7.6.2.3.3.7.4,1.1.1.5.1,1,.1,1.7v1.5c0,.5-.1.9-.3,1.3s-.4.7-.7.9c-.3.2-.8.3-1.3.3s-.8-.1-1.1-.2-.5-.3-.7-.6c-.2-.3-.3-.7-.4-1.1-.1-.5-.1-1-.1-1.7v-1.5Zm1.5,3c0,.3.1.5.1.7s.1.3.3.4c.1.1.2.1.4.1s.3,0,.4-.1c.1-.1.2-.2.2-.4s.1-.5.1-.8v-3.2c0-.3-.1-.5-.1-.7-.1-.2-.1-.3-.3-.4-.1-.1-.2-.1-.4-.1s-.3,0-.4.1-.2.2-.2.4-.1.5-.1.8v3.2Z"/>
    <path class="cls-7" d="m426.03,225.4c0-.3,0-.6.1-.9s.2-.6.3-.8c.1-.3.3-.5.5-.8.2-.2.5-.5.7-.8l.6-.6c.2-.1.3-.3.4-.4.1-.1.2-.3.2-.4s.1-.3.1-.4v-.5c0-.6-.2-.9-.8-.9-.2,0-.3,0-.5.1-.1.1-.2.2-.3.3-.1.1-.1.3-.1.5v.6h-1.5v-.3c0-.7.2-1.2.6-1.6.4-.4,1-.6,1.8-.6s1.3.2,1.7.5c.4.4.6.9.6,1.5,0,.2,0,.5-.1.7,0,.2-.1.4-.2.6s-.2.4-.4.6-.3.4-.5.6l-.9.8c-.2.2-.4.4-.5.6s-.2.4-.2.5h2.9v1.2l-4.5-.1h0Z"/>
    <path class="cls-7" d="m402.13,40c.1.2.3.3.7.3.2,0,.3,0,.4-.1s.2-.2.3-.3.1-.2.1-.4v-1c0-.2-.1-.3-.1-.4s-.2-.2-.3-.3c-.1-.1-.3-.1-.5-.1h-.5v-1h.5c.2,0,.3,0,.4-.1.1-.1.2-.2.3-.3.1-.1.1-.2.1-.4v-.5c0-.4-.1-.6-.2-.8-.1-.2-.3-.2-.6-.2-.2,0-.3,0-.4.1-.1.1-.2.2-.2.3-.1.1-.1.2-.1.4v.5h-1.4c0-.8.2-1.3.6-1.7.4-.4.9-.5,1.7-.5.7,0,1.2.2,1.6.5.4.3.6.8.6,1.5,0,.5-.1.8-.3,1.1-.2.3-.5.5-.9.5h0c.5.1.8.3,1,.6.2.3.3.7.3,1.2,0,.3,0,.5-.1.8s-.2.5-.4.7-.4.4-.8.5c-.3.1-.8.2-1.3.2-.7,0-1.3-.2-1.6-.6-.4-.4-.5-1-.5-1.7h1.5c-.2.7-.2,1,.1,1.2Z"/>
    <path class="cls-7" d="m405.53,36.2c0-.5.1-.9.3-1.3s.4-.7.7-.9c.3-.2.8-.3,1.3-.3s.9.1,1.1.2.5.3.7.6c.2.3.3.7.4,1.1.1.5.1,1,.1,1.7v1.5c0,.5-.1.9-.3,1.3s-.4.7-.7.9c-.3.2-.8.3-1.3.3s-.8-.1-1.1-.2-.5-.3-.7-.6c-.2-.3-.3-.7-.4-1.1-.1-.5-.1-1-.1-1.7v-1.5Zm1.6,3c0,.3.1.5.1.7s.1.3.3.4c.1.1.2.1.4.1s.3,0,.4-.1.2-.2.2-.4c.1-.2.1-.5.1-.8v-3.2c0-.3-.1-.5-.1-.7-.1-.2-.1-.3-.3-.4-.1-.1-.2-.1-.4-.1s-.3,0-.4.1c-.1.1-.2.2-.2.4s-.1.5-.1.8v3.2Z"/>
    <path class="cls-7" d="m412.53,40c.1.2.3.3.7.3.2,0,.3,0,.4-.1s.2-.2.3-.3.1-.2.1-.4v-1c0-.2-.1-.3-.1-.4s-.2-.2-.3-.3c-.1-.1-.3-.1-.5-.1h-.5v-1h.5c.2,0,.3,0,.4-.1s.2-.2.3-.3c.1-.1.1-.2.1-.4v-.5c0-.4-.1-.6-.2-.8-.1-.2-.3-.2-.6-.2-.2,0-.3,0-.4.1-.1.1-.2.2-.2.3-.1.1-.1.2-.1.4v.5h-1.4c0-.8.2-1.3.6-1.7.4-.4.9-.5,1.7-.5.7,0,1.2.2,1.6.5.4.3.6.8.6,1.5,0,.5-.1.8-.3,1.1-.2.3-.5.5-.9.5h0c.5.1.8.3,1,.6.2.3.3.7.3,1.2,0,.3,0,.5-.1.8s-.2.5-.4.7-.4.4-.8.5c-.3.1-.8.2-1.3.2-.7,0-1.3-.2-1.6-.6-.4-.4-.5-1-.5-1.7h1.5c-.1.7-.1,1,.1,1.2Z"/>
    <path class="cls-7" d="m478.13,346c.1.2.3.4.7.4.2,0,.3,0,.4-.1s.2-.1.3-.3.1-.2.1-.4v-1c0-.1-.1-.3-.1-.4-.1-.1-.2-.2-.3-.3s-.3-.1-.5-.1h-.5v-1h.5c.2,0,.3,0,.4-.1s.2-.2.3-.3c.1-.1.1-.2.1-.4v-.5c0-.4-.1-.6-.2-.8-.1-.2-.3-.2-.6-.2-.2,0-.3,0-.4.1-.1.1-.2.1-.2.3-.1.1-.1.2-.1.4v.5h-1.4c0-.8.2-1.3.6-1.7s.9-.5,1.7-.5c.7,0,1.2.2,1.6.5.4.3.6.8.6,1.5,0,.5-.1.8-.3,1.1-.2.3-.5.5-.9.5h0c.5.1.8.3,1,.6.2.3.3.7.3,1.2,0,.3,0,.5-.1.8s-.2.5-.4.7-.4.4-.8.5c-.4.1-.8.2-1.3.2-.7,0-1.3-.2-1.6-.6-.4-.4-.5-1-.5-1.7h1.5c0,.5,0,.8.1,1.1Z"/>
    <path class="cls-7" d="m481.83,342.1c0-.5.1-.9.3-1.3.2-.4.4-.7.7-.9.3-.2.8-.3,1.3-.3s.9.1,1.1.2c.2.1.5.3.7.6s.3.7.4,1.1c.1.5.1,1,.1,1.7v1.5c0,.5-.1.9-.3,1.3-.2.4-.4.7-.7.9s-.8.3-1.3.3-.8-.1-1.1-.2c-.3-.1-.5-.3-.7-.6s-.3-.7-.4-1.1c-.1-.5-.1-1-.1-1.7-.3-.5-.3-1,0-1.5Zm1.5,3c0,.3.1.5.1.7.1.2.1.3.3.4.1.1.2.1.4.1s.3,0,.4-.1c.1-.1.2-.2.2-.4s.1-.5.1-.8v-3.2c0-.3-.1-.5-.1-.7-.1-.2-.1-.3-.3-.4-.1-.1-.2-.1-.4-.1s-.3,0-.4.1-.3.2-.3.4v2.8c-.2.6,0,.9,0,1.2Z"/>
    <path class="cls-7" d="m488.53,340.9l-.2,1.7h0c.1-.2.3-.3.6-.4s.5-.1.8-.1c.4,0,.7.1.9.2s.4.3.6.5c.1.2.2.5.3.8s.1.6.1.9c0,.4,0,.8-.1,1.1s-.2.6-.4.9c-.2.2-.4.4-.7.6-.3.1-.7.2-1.2.2s-.9-.1-1.2-.2c-.3-.1-.5-.3-.7-.5s-.3-.4-.3-.7c0-.2-.1-.5-.1-.7v-.2h1.5v.4c0,.1,0,.3.1.4,0,.1.1.2.2.3s.2.1.4.1c.3,0,.5-.1.7-.4.2-.3.2-.6.2-1.1v-.8c0-.2-.1-.4-.1-.5-.1-.1-.2-.2-.3-.3-.1-.1-.3-.1-.4-.1-.2,0-.4.1-.5.2s-.2.3-.2.5h-1.4l.3-4.1h4v1.2l-2.9.1h0Z"/>
    <path class="cls-7" d="m355.83,372.9c.1.2.3.4.7.4.2,0,.3,0,.4-.1.1-.1.2-.1.3-.3s.1-.2.1-.4v-1c0-.2-.1-.3-.1-.4s-.2-.2-.3-.3-.3-.1-.5-.1h-.5v-1h.5c.2,0,.3,0,.4-.1.1-.1.2-.2.3-.3s.1-.2.1-.4v-.5c0-.4-.1-.6-.2-.8-.1-.2-.3-.2-.6-.2-.2,0-.3,0-.4.1s-.2.1-.2.3c-.1.1-.1.2-.1.4v.5h-1.4c0-.8.2-1.3.6-1.7.4-.4.9-.5,1.7-.5.7,0,1.2.2,1.6.5s.6.8.6,1.5c0,.5-.1.8-.3,1.1s-.5.5-.9.5h0c.5.1.8.3,1,.6s.3.7.3,1.2c0,.3,0,.5-.1.8s-.2.5-.4.7-.4.4-.8.5c-.3.1-.8.2-1.3.2-.7,0-1.3-.2-1.6-.6-.4-.4-.5-1-.5-1.7h1.5c-.2.5-.2.8.1,1.1Z"/>
    <path class="cls-7" d="m361.83,366.5h1.6v4.8h.7v1.2h-.8v1.6h-1.4v-1.6h-2.7v-1.3l2.6-4.7Zm.2,1.9l-1.5,2.9h1.5v-2.9h0Z"/>
    <path class="cls-7" d="m364.53,369c0-.5.1-.9.3-1.3s.4-.7.7-.9c.3-.2.8-.3,1.3-.3s.9.1,1.1.2c.2.1.5.3.7.6.2.3.3.7.4,1.1.1.5.1,1,.1,1.7v1.5c0,.5-.1.9-.3,1.3-.2.4-.4.7-.7.9s-.8.3-1.3.3-.8-.1-1.1-.2c-.3-.1-.5-.3-.7-.6s-.3-.7-.4-1.1c-.1-.5-.1-1-.1-1.7v-1.5Zm1.6,3.1c0,.3.1.5.1.7s.1.3.3.4c.1.1.2.1.4.1s.3,0,.4-.1c.1-.1.2-.2.2-.4s.1-.5.1-.8v-3.2c0-.3-.1-.5-.1-.7-.1-.2-.1-.3-.3-.4-.1-.1-.2-.1-.4-.1s-.3,0-.4.1c-.1.1-.2.2-.2.4s-.1.5-.1.8v3.2Z"/>
    <path class="cls-7" d="m427.03,452c.1.2.3.4.7.4.2,0,.3,0,.4-.1.1-.1.2-.1.3-.3s.1-.2.1-.4v-1c0-.2-.1-.3-.1-.4s-.2-.2-.3-.3-.3-.1-.5-.1h-.5v-1h.5c.2,0,.3,0,.4-.1s.2-.2.3-.3c.1-.1.1-.2.1-.4v-.5c0-.4-.1-.6-.2-.8-.1-.2-.3-.2-.6-.2-.2,0-.3,0-.4.1-.1.1-.2.1-.2.3-.1.1-.1.2-.1.4v.5h-1.4c0-.8.2-1.3.6-1.7.4-.4.9-.5,1.7-.5.7,0,1.2.2,1.6.5.4.3.6.8.6,1.5,0,.5-.1.8-.3,1.1-.2.3-.5.5-.9.5h0c.5.1.8.3,1,.6.2.3.3.7.3,1.2,0,.3,0,.5-.1.8s-.2.5-.4.7-.4.4-.8.5c-.3.1-.8.2-1.3.2-.7,0-1.3-.2-1.6-.6s-.5-1-.5-1.7h1.5c-.1.5-.1.9.1,1.1Z"/>
    <path class="cls-7" d="m432.13,452c.1.2.3.4.7.4.2,0,.3,0,.4-.1.1-.1.2-.1.3-.3s.1-.2.1-.4v-1c0-.2-.1-.3-.1-.4s-.2-.2-.3-.3-.3-.1-.5-.1h-.4v-1h.5c.2,0,.3,0,.4-.1s.2-.2.3-.3c.1-.1.1-.2.1-.4v-.5c0-.4-.1-.6-.2-.8-.1-.2-.3-.2-.6-.2-.2,0-.3,0-.4.1-.1.1-.2.1-.2.3-.1.1-.1.2-.1.4v.5h-1.4c0-.8.2-1.3.6-1.7.4-.4.9-.5,1.7-.5.7,0,1.2.2,1.6.5.4.3.6.8.6,1.5,0,.5-.1.8-.3,1.1-.2.3-.5.5-.9.5h0c.5.1.8.3,1,.6.2.3.3.7.3,1.2,0,.3,0,.5-.1.8s-.2.5-.4.7-.4.4-.8.5c-.3.1-.8.2-1.3.2-.7,0-1.3-.2-1.6-.6s-.5-1-.5-1.7h1.5c-.1.5,0,.9,0,1.1Z"/>
    <path class="cls-7" d="m437.53,447.9h-1.5v-1h.1c.5,0,.9-.1,1.2-.3.3-.2.5-.5.6-.9h1.1v7.6h-1.5v-5.4h0Z"/>
    <path class="cls-7" d="m384.13,295.6c.1.2.3.4.7.4.2,0,.3,0,.4-.1.1-.1.2-.1.3-.3s.1-.2.1-.4v-1c0-.2-.1-.3-.1-.4s-.2-.2-.3-.3-.3-.1-.5-.1h-.4v-1h.5c.2,0,.3,0,.4-.1s.2-.2.3-.3.1-.2.1-.4v-.5c0-.4-.1-.6-.2-.8-.1-.2-.3-.2-.6-.2-.2,0-.3,0-.4.1-.1.1-.2.1-.2.3-.1.1-.1.2-.1.4v.5h-1.4c0-.8.2-1.3.6-1.7s.9-.5,1.7-.5c.7,0,1.2.2,1.6.5.4.3.6.8.6,1.5,0,.5-.1.8-.3,1.1s-.6.5-1,.5h0c.5.1.8.3,1,.6s.3.7.3,1.2c0,.3,0,.5-.1.8s-.2.5-.4.7-.4.4-.8.5c-.3.1-.8.2-1.3.2-.7,0-1.3-.2-1.6-.6-.4-.4-.5-1-.5-1.7h1.5c0,.6.1.9.1,1.1Z"/>
    <path class="cls-7" d="m387.53,291.8c0-.5.1-.9.3-1.3.2-.4.4-.7.7-.9s.8-.3,1.3-.3.9.1,1.1.2c.2.1.5.3.7.6s.3.7.4,1.1c.1.5.1,1,.1,1.7v1.5c0,.5-.1.9-.3,1.3-.2.4-.4.7-.7.9s-.8.3-1.3.3-.8-.1-1.1-.2c-.3-.1-.5-.3-.7-.6s-.3-.7-.4-1.1c-.1-.5-.1-1-.1-1.7v-1.5Zm1.6,3c0,.3.1.5.1.7s.1.3.3.4c.1.1.2.1.4.1s.3,0,.4-.1.2-.2.2-.4.1-.5.1-.8v-3.2c0-.3-.1-.5-.1-.7-.1-.2-.1-.3-.3-.4-.1-.1-.2-.1-.4-.1s-.3,0-.4.1c-.1.1-.2.2-.2.4s-.1.5-.1.8v3.2Z"/>
    <path class="cls-7" d="m394.33,291.5h-1.5v-1h.1c.5,0,.9-.1,1.2-.3s.5-.5.6-.9h1.1v7.6h-1.5v-5.4h0Z"/>
    <path class="cls-7" d="m184.33,409c.1.2.3.4.7.4.2,0,.3,0,.4-.1.1-.1.2-.1.3-.3.1-.1.1-.2.1-.4v-1c0-.2-.1-.3-.1-.4-.1-.1-.2-.2-.3-.3-.1-.1-.3-.1-.5-.1h-.5v-1h.5c.2,0,.3,0,.4-.1.1-.1.2-.2.3-.3.1-.1.1-.2.2-.4.1-.2,0-.3,0-.5,0-.4-.1-.6-.2-.8-.1-.2-.3-.2-.6-.2-.2,0-.3,0-.4.1-.1.1-.2.1-.2.3-.1.1-.1.2-.1.4v.5h-1.4c0-.8.2-1.3.6-1.7.4-.4.9-.5,1.7-.5.7,0,1.2.2,1.6.5.4.3.6.8.6,1.5,0,.5-.1.8-.3,1.1-.2.3-.5.5-.9.5h0c.5.1.8.3,1,.6.2.3.3.7.3,1.2,0,.3,0,.5-.1.8s-.2.5-.4.7-.4.4-.8.5c-.3.1-.8.2-1.3.2-.7,0-1.3-.2-1.7-.6s-.6-1-.6-1.7h1.5c.2.5.2.9.2,1.1Z"/>
    <path class="cls-7" d="m189.73,409c.1.2.3.4.7.4.2,0,.3,0,.4-.1.1-.1.2-.1.3-.3.1-.1.1-.2.1-.4v-1c0-.2-.1-.3-.1-.4-.1-.1-.2-.2-.3-.3-.1-.1-.3-.1-.5-.1h-.5v-1h.5c.2,0,.3,0,.4-.1.1-.1.2-.2.3-.3s.1-.2.1-.4.1-.3.1-.5c0-.4-.1-.6-.2-.8-.1-.2-.3-.2-.6-.2-.2,0-.3,0-.4.1s-.2.1-.2.3c-.1.1-.1.2-.1.4v.5h-1.4c0-.8.2-1.3.6-1.7.4-.4.9-.5,1.7-.5.7,0,1.2.2,1.6.5s.6.8.6,1.5c0,.5-.1.8-.3,1.1-.2.3-.5.5-.8.5h0c.5.1.8.3,1,.6.2.3.3.7.3,1.2,0,.3,0,.5-.1.8s-.2.5-.4.7-.4.4-.8.5c-.3.1-.8.2-1.3.2-.7,0-1.3-.2-1.6-.6s-.6-1-.6-1.7h1.5c-.2.5-.2.9,0,1.1Z"/>
    <path class="cls-7" d="m196.13,403.9c-.1-.2-.3-.2-.5-.2s-.4,0-.5.1-.2.2-.3.4c-.1.2-.1.4-.1.6v1.2h0c.1-.2.3-.4.6-.5.2-.1.5-.2.9-.2.3,0,.6.1.9.2.2.1.4.3.6.5s.2.5.3.8.1.6.1,1c0,.9-.2,1.5-.6,2-.4.5-1,.7-1.9.7-.5,0-.9-.1-1.3-.3-.3-.2-.6-.4-.7-.8-.2-.3-.3-.7-.3-1.1s-.1-.9-.1-1.3c0-.5,0-1,.1-1.6,0-.5.1-1,.3-1.3.2-.4.4-.7.8-.9.4-.2.8-.4,1.4-.4.3,0,.5,0,.8.1.2.1.5.2.7.3.2.1.4.4.5.6s.2.5.2.9h-1.5c-.2-.4-.2-.7-.4-.8Zm-1.3,4.6c0,.2.1.3.1.5s.1.2.3.3c.1.1.2.1.4.1s.3,0,.4-.1c.1-.1.2-.2.2-.3s.1-.3.1-.5v-.6c0-.5-.1-.9-.2-1.1s-.3-.3-.6-.3-.5.1-.6.3c-.1.2-.2.6-.2,1.1.1.2.1.4.1.6Z"/>
    <path class="cls-7" d="m235.82,430.63c.1.2.3.4.7.4.2,0,.3,0,.4-.1.1-.1.2-.1.3-.3s.1-.2.1-.4v-1c0-.2-.1-.3-.1-.4-.1-.1-.2-.2-.3-.3s-.3-.1-.5-.1h-.5v-1h.5c.2,0,.3,0,.4-.1s.2-.2.3-.3.1-.2.1-.4.1-.3.1-.5c0-.4-.1-.6-.2-.8s-.3-.2-.6-.2c-.2,0-.3,0-.4.1s-.3.1-.3.3c-.1.1-.1.2-.1.4v.5h-1.4c0-.8.2-1.3.6-1.7.4-.4.9-.5,1.7-.5.7,0,1.2.2,1.6.5s.6.8.6,1.5c0,.5-.1.8-.3,1.1-.2.3-.5.5-.9.5h0c.5.1.8.3,1,.6.2.3.3.7.3,1.2,0,.3,0,.5-.1.8s-.2.5-.4.7-.4.4-.8.5c-.3.1-.8.2-1.3.2-.7,0-1.3-.2-1.7-.6s-.5-1-.5-1.7h1.5c0,.5,0,.8.2,1.1Z"/>
    <path class="cls-7" d="m241.02,430.63c.1.2.3.4.7.4.2,0,.3,0,.4-.1s.2-.1.3-.3.1-.2.1-.4v-1c0-.2-.1-.3-.1-.4s-.2-.2-.3-.3-.3-.1-.5-.1h-.5v-1h.5c.2,0,.3,0,.4-.1.1-.1.2-.2.3-.3s.1-.2.1-.4c0-.1.1-.3.1-.5,0-.4-.1-.6-.2-.8-.1-.2-.3-.2-.6-.2-.2,0-.3,0-.4.1-.1.1-.2.1-.2.3-.1.1-.1.2-.1.4v.5h-1.4c0-.8.2-1.3.6-1.7s.9-.5,1.7-.5c.7,0,1.2.2,1.6.5.4.3.6.8.6,1.5,0,.5-.1.8-.3,1.1-.2.3-.5.5-.8.5h0c.5.1.8.3,1,.6.2.3.3.7.3,1.2,0,.3,0,.5-.1.8s-.2.5-.4.7-.4.4-.8.5c-.3.1-.8.2-1.3.2-.7,0-1.3-.2-1.6-.6s-.5-1-.5-1.7h1.5c-.1.5-.1.8-.1,1.1Z"/>
    <path class="cls-7" d="m249.52,425.53c-.3.4-.6.9-.8,1.4s-.5,1-.6,1.6c-.2.5-.3,1.1-.5,1.6-.1.5-.2,1.1-.3,1.6h-1.6c.1-.5.1-.9.3-1.4s.3-1,.4-1.5.4-1,.7-1.6.6-1,1-1.5h-3.2v-1.3h4.7l-.1,1.1h0Z"/>
    <path class="cls-7" d="m309.58,430.07c.1.2.3.4.7.4.2,0,.3,0,.4-.1.1-.1.2-.1.3-.3s.1-.2.1-.4v-1c0-.2-.1-.3-.1-.4-.1-.1-.2-.2-.3-.3s-.3-.1-.5-.1h-.5v-1h.5c.2,0,.3,0,.4-.1s.2-.2.3-.3.1-.2.1-.4.1-.3.1-.5c0-.4-.1-.6-.2-.8s-.3-.2-.6-.2c-.2,0-.3,0-.4.1s-.3.1-.3.3c-.1.1-.1.2-.1.4v.5h-1.4c0-.8.2-1.3.6-1.7.4-.4.9-.5,1.7-.5.7,0,1.2.2,1.6.5s.6.8.6,1.5c0,.5-.1.8-.3,1.1-.2.3-.5.5-.9.5h0c.5.1.8.3,1,.6.2.3.3.7.3,1.2,0,.3,0,.5-.1.8s-.2.5-.4.7-.4.4-.8.5c-.3.1-.8.2-1.3.2-.7,0-1.3-.2-1.7-.6s-.5-1-.5-1.7h1.5c0,.5,0,.8.2,1.1Z"/>
    <path class="cls-7" d="m314.78,430.07c.1.2.3.4.7.4.2,0,.3,0,.4-.1s.2-.1.3-.3.1-.2.1-.4v-1c0-.2-.1-.3-.1-.4s-.2-.2-.3-.3-.3-.1-.5-.1h-.5v-1h.5c.2,0,.3,0,.4-.1.1-.1.2-.2.3-.3s.1-.2.1-.4c0-.1.1-.3.1-.5,0-.4-.1-.6-.2-.8-.1-.2-.3-.2-.6-.2-.2,0-.3,0-.4.1-.1.1-.2.1-.2.3-.1.1-.1.2-.1.4v.5h-1.4c0-.8.2-1.3.6-1.7s.9-.5,1.7-.5c.7,0,1.2.2,1.6.5.4.3.6.8.6,1.5,0,.5-.1.8-.3,1.1-.2.3-.5.5-.8.5h0c.5.1.8.3,1,.6.2.3.3.7.3,1.2,0,.3,0,.5-.1.8s-.2.5-.4.7-.4.4-.8.5c-.3.1-.8.2-1.3.2-.7,0-1.3-.2-1.6-.6s-.5-1-.5-1.7h1.5c-.1.5-.1.8-.1,1.1Z"/>
    <path class="cls-7" d="m336.13,536.3c.1.2.3.3.7.3.2,0,.3,0,.4-.1s.2-.2.3-.3.1-.2.1-.4v-1c0-.2-.1-.3-.1-.4s-.2-.2-.3-.3-.3-.1-.5-.1h-.5v-1h.5c.2,0,.3,0,.4-.1.1-.1.2-.2.3-.3s.1-.2.1-.4v-.5c0-.4-.1-.6-.2-.8-.1-.2-.3-.2-.6-.2-.2,0-.3,0-.4.1-.1.1-.2.2-.2.3s-.1.2-.1.4v.5h-1.4c0-.8.2-1.3.6-1.7.4-.4.9-.5,1.7-.5.7,0,1.2.2,1.6.5.4.3.6.8.6,1.5,0,.5-.1.8-.3,1.1s-.5.5-.9.5h0c.5.1.8.3,1,.6s.3.7.3,1.2c0,.3,0,.5-.1.8s-.2.5-.4.7-.4.4-.8.5c-.3.1-.8.2-1.3.2-.7,0-1.3-.2-1.6-.6-.3-.4-.5-1-.5-1.7h1.5c-.2.7,0,1,.1,1.2Z"/>
    <path class="cls-7" d="m342.13,530h1.6v4.8h.7v1.2h-.7v1.6h-1.4v-1.6h-2.7v-1.3l2.5-4.7Zm.2,1.9l-1.5,2.9h1.5v-2.9h0Z"/>
    <path class="cls-7" d="m346.13,531.3l-.2,1.7h0c.1-.2.3-.3.6-.4.2-.1.5-.1.8-.1.4,0,.7.1.9.2.2.1.4.3.6.5s.2.5.3.8.1.6.1.9c0,.4,0,.8-.1,1.1s-.2.6-.4.9c-.2.3-.4.4-.7.6-.3.1-.7.2-1.2.2s-.9-.1-1.2-.2c-.3-.1-.5-.3-.7-.5s-.3-.4-.3-.7c0-.2-.1-.5-.1-.7v-.2h1.5v.4c0,.1,0,.3.1.4,0,.1.1.2.2.3s.2.1.4.1c.3,0,.5-.1.7-.4.2-.3.2-.6.2-1.1v-.8c0-.2-.1-.4-.1-.5-.1-.1-.2-.2-.3-.3s-.3-.1-.4-.1c-.2,0-.4.1-.5.2-.1.1-.2.3-.2.5h-1.4l.3-4.1h4v1.2l-2.9.1h0Z"/>
    <path class="cls-7" d="m132.03,698.2c.1.2.3.3.7.3.2,0,.3,0,.4-.1l.3-.3c.1-.1.1-.2.1-.4v-1c0-.2-.1-.3-.1-.4l-.3-.3c-.1-.1-.3-.1-.5-.1h-.5v-1h.5c.2,0,.3,0,.4-.1l.3-.3c.1-.1.1-.2.1-.4s.1-.3.1-.5c0-.4-.1-.6-.2-.8-.1-.2-.3-.2-.6-.2-.2,0-.3,0-.4.1s-.2.2-.2.3-.1.2-.1.4v.5h-1.4c0-.8.2-1.3.6-1.7.4-.4.9-.5,1.7-.5.7,0,1.2.2,1.6.5s.6.8.6,1.5c0,.5-.1.8-.3,1.1-.2.3-.5.5-.9.5h0c.5.1.8.3,1,.6s.3.7.3,1.2c0,.3,0,.5-.1.8s-.2.5-.4.7-.4.4-.8.5c-.3.1-.8.2-1.3.2-.7,0-1.3-.2-1.6-.6-.4-.4-.6-1-.6-1.7h1.5c-.1.6-.1,1,.1,1.2Z"/>
    <path class="cls-7" d="m137.13,693.2l-.2,1.7h0c.1-.2.3-.3.6-.4.2-.1.5-.1.8-.1.4,0,.7.1.9.2s.4.3.6.5.2.5.3.8.1.6.1.9c0,.4,0,.8-.1,1.1-.1.3-.2.6-.4.9-.2.2-.4.4-.7.6-.3.1-.7.2-1.2.2s-.9-.1-1.2-.2-.5-.3-.7-.5-.3-.4-.3-.7c-.1-.2-.1-.5-.1-.7v-.2h1.5v.4c0,.1.1.3.1.4s.1.2.2.3c.1.1.2.1.4.1.3,0,.6-.1.7-.4s.2-.6.2-1.1v-.8c0-.2-.1-.4-.1-.5l-.3-.3c-.1-.1-.3-.1-.4-.1-.2,0-.4.1-.5.2s-.2.3-.2.5h-1.4l.3-4.1h3.9v1.2l-2.8.1h0Z"/>
    <path class="cls-7" d="m140.73,694.4c0-.5.1-.9.3-1.3s.4-.7.7-.9c.3-.2.8-.3,1.3-.3s.9.1,1.1.2c.3.1.6.3.7.6.2.3.3.7.4,1.1.1.5.1,1,.1,1.7,0,.5,0,1-.1,1.5,0,.5-.1.9-.3,1.3s-.4.7-.7.9c-.3.2-.8.3-1.3.3s-.8-.1-1.1-.2-.5-.3-.7-.6-.3-.7-.4-1.1c-.1-.5-.1-1-.1-1.7-.1-.5-.1-1.1.1-1.5Zm1.5,3c0,.3.1.5.1.7.1.2.1.3.3.4.1.1.2.1.4.1s.3,0,.4-.1.2-.2.2-.4.1-.5.1-.8v-3.2c0-.3-.1-.5-.1-.7-.1-.2-.2-.3-.3-.4s-.2-.1-.4-.1-.3,0-.4.1-.2.2-.2.4c-.1.2-.1.5-.1.8v2c-.1.5,0,.9,0,1.2Z"/>
    <path class="cls-7" d="m342.13,670.4c.1.2.3.3.7.3.2,0,.3,0,.4-.1s.2-.2.3-.3.1-.2.1-.4v-1c0-.2-.1-.3-.1-.4s-.2-.2-.3-.3-.3-.1-.5-.1h-.5v-1h.5c.2,0,.3,0,.4-.1.1-.1.2-.2.3-.3.1-.1.1-.2.1-.4v-.5c0-.4-.1-.6-.2-.8-.1-.2-.3-.2-.6-.2-.2,0-.3,0-.4.1-.1.1-.2.2-.2.3s-.1.2-.1.4v.5h-1.4c0-.8.2-1.3.6-1.7.4-.4.9-.5,1.7-.5.7,0,1.2.2,1.6.5.4.3.6.8.6,1.5,0,.5-.1.8-.3,1.1-.2.3-.5.5-.9.5h0c.5.1.8.3,1,.6.2.3.3.7.3,1.2,0,.3,0,.5-.1.8s-.2.5-.4.7-.4.4-.8.5c-.3.1-.8.2-1.3.2-.7,0-1.3-.2-1.6-.6s-.5-1-.5-1.7h1.5c-.2.6-.2,1,.1,1.2Z"/>
    <path class="cls-7" d="m348.13,664h1.6v4.8h.7v1.2h-.7v1.6h-1.4v-1.6h-2.7v-1.3l2.5-4.7Zm0,1.9l-1.5,2.9h1.5v-2.9h0Z"/>
    <path class="cls-7" d="m355.33,665.3c-.3.4-.6.9-.8,1.4s-.5,1-.6,1.6c-.2.5-.3,1.1-.5,1.6s-.2,1.1-.3,1.6h-1.6c.1-.5.1-.9.3-1.4s.3-1,.5-1.5.4-1,.7-1.6.6-1,1-1.5h-3.2v-1.3h4.7l-.2,1.1h0Z"/>
    <path class="cls-7" d="m339.03,618.5c.1.2.3.3.7.3.2,0,.3,0,.4-.1.1-.1.2-.2.3-.3s.1-.2.1-.4v-1c0-.2-.1-.3-.1-.4s-.2-.2-.3-.3-.3-.1-.5-.1h-.5v-1h.5c.2,0,.3,0,.4-.1s.2-.2.3-.3c.1-.1.1-.2.1-.4v-.5c0-.4-.1-.6-.2-.8-.1-.2-.3-.2-.6-.2-.2,0-.3,0-.4.1-.1.1-.2.2-.2.3s-.1.2-.1.4v.5h-1.4c0-.8.2-1.3.6-1.7.4-.4.9-.5,1.7-.5.7,0,1.2.2,1.6.5.4.3.6.8.6,1.5,0,.5-.1.8-.3,1.1-.2.3-.5.5-.9.5h0c.5.1.8.3,1,.6.2.3.3.7.3,1.2,0,.3,0,.5-.1.8s-.2.5-.4.7-.4.4-.8.5c-.3.1-.8.2-1.3.2-.7,0-1.3-.2-1.6-.6s-.5-1-.5-1.7h1.5c-.1.6-.1.9.1,1.2Z"/>
    <path class="cls-7" d="m345.13,612.1h1.6v4.8h.7v1.2h-.8v1.6h-1.4v-1.6h-2.7v-1.3l2.6-4.7Zm0,1.9l-1.5,2.9h1.5v-2.9h0Z"/>
    <path class="cls-7" d="m350.53,613.3c-.1-.2-.3-.2-.5-.2s-.4,0-.5.1-.2.2-.3.4-.1.4-.1.6v1.2h0c.1-.2.3-.4.5-.5s.5-.2.9-.2c.3,0,.6.1.9.2s.4.3.6.5c.1.2.2.5.3.8s.1.6.1,1c0,.9-.2,1.5-.6,2-.4.5-1,.7-1.9.7-.5,0-1-.1-1.3-.3-.3-.2-.5-.4-.7-.8-.2-.3-.3-.7-.3-1.1s-.1-.9-.1-1.3v-1.6c0-.5.1-1,.3-1.3s.4-.7.8-.9.8-.3,1.5-.3c.3,0,.5,0,.8.1.2.1.5.2.7.3.2.1.4.3.5.6s.2.5.2.9h-1.5c-.3-.5-.3-.7-.3-.9Zm-1.4,4.6c0,.2.1.3.1.5s.1.2.3.3c.1.1.2.1.4.1s.3,0,.4-.1c.1-.1.2-.2.2-.3s.1-.3.1-.5v-.6c0-.5-.1-.9-.2-1.1-.1-.2-.3-.3-.6-.3s-.5.1-.6.3c-.1.2-.2.6-.2,1.1.1.2.1.4.1.6Z"/>
    <path class="cls-7" d="m233.83,465.6c.1.2.3.4.7.4.2,0,.3,0,.4-.1.1-.1.2-.1.3-.3s.1-.2.1-.4v-1c0-.2-.1-.3-.1-.4-.1-.1-.2-.2-.3-.3s-.3-.1-.5-.1h-.5v-1h.5c.2,0,.3,0,.4-.1.1-.1.2-.2.3-.3.1-.1.1-.2.1-.4s.1-.3.1-.5c0-.4-.1-.6-.2-.8-.1-.2-.3-.2-.6-.2-.2,0-.3,0-.4.1-.1.1-.2.1-.2.3-.1.1-.1.2-.1.4v.5h-1.5c0-.8.2-1.3.6-1.7.4-.4.9-.5,1.7-.5.7,0,1.2.2,1.6.5.4.3.6.8.6,1.5,0,.5-.1.8-.3,1.1-.2.3-.5.5-.9.5h0c.5.1.8.3,1,.6.2.3.3.7.3,1.2,0,.3,0,.5-.1.8-.1.3-.2.5-.4.7s-.4.4-.8.5c-.3.1-.8.2-1.3.2-.7,0-1.3-.2-1.6-.6-.3-.4-.6-1-.6-1.7h1.5c-.1.5-.1.9.2,1.1Z"/>
    <path class="cls-7" d="m239.13,465.6c.1.2.3.4.7.4.2,0,.3,0,.4-.1s.2-.1.3-.3.1-.2.1-.4v-1c0-.2-.1-.3-.1-.4-.1-.1-.2-.2-.3-.3-.1-.1-.3-.1-.5-.1h-.5v-1h.5c.2,0,.3,0,.4-.1.1-.1.2-.2.3-.3s.1-.2.1-.4.1-.3.1-.5c0-.4-.1-.6-.2-.8-.1-.2-.3-.2-.6-.2-.2,0-.3,0-.4.1-.1.1-.2.1-.2.3-.1.1-.1.2-.1.4v.5h-1.5c0-.8.2-1.3.6-1.7.4-.4.9-.5,1.7-.5.7,0,1.2.2,1.6.5.4.3.6.8.6,1.5,0,.5-.1.8-.3,1.1-.2.3-.5.5-.9.5h0c.5.1.8.3,1,.6.2.3.3.7.3,1.2,0,.3,0,.5-.1.8-.1.3-.2.5-.4.7s-.4.4-.8.5c-.3.1-.8.2-1.3.2-.7,0-1.3-.2-1.6-.6-.3-.4-.6-1-.6-1.7h1.5c-.1.5.1.9.2,1.1Z"/>
    <path class="cls-7" d="m245.13,459.2h1.6v4.8h.7v1.2h-.7v1.6h-1.4v-1.6h-2.7v-1.3l2.5-4.7Zm.2,1.9l-1.5,2.9h1.5v-2.9h0Z"/>
    <path class="cls-7" d="m321.21,430.22c.14.14.28.28.55.28s.41,0,.55-.14.28-.28.28-.41c0-.14.14-.41.14-.55v-1.24h0c-.14.14-.28.41-.55.41-.28.14-.55.14-.83.14s-.69,0-.83-.14c-.28-.14-.41-.28-.55-.55-.14-.28-.28-.41-.28-.69s-.14-.55-.14-.96c0-.83.14-1.52.55-2.07.41-.41.96-.69,1.93-.69.55,0,.96.14,1.24.28.28.14.55.41.69.83.14.28.28.69.28,1.1s.14.83.14,1.38v1.52c0,.41-.14.96-.28,1.38-.14.41-.41.69-.83.96-.41.28-.83.28-1.52.28-.28,0-.55,0-.83-.14-.28,0-.41-.14-.69-.28-.14-.14-.41-.28-.41-.55-.14-.28-.14-.55-.14-.96h1.52c-.13.54-.13.67.01.81Zm-.14-2.89c.14.28.28.28.69.28.28,0,.55-.14.69-.28.14-.28.14-.55.14-1.1v-.55c0-.14,0-.41-.14-.41,0-.14-.14-.28-.28-.28-.14-.14-.28-.14-.41-.14s-.28,0-.41.14l-.28.28c-.14.14-.14.28-.14.41v.55c.01.55.01.96.14,1.1Z"/>
    <g class="cls-11">
      <path class="cls-8" d="m383.85,24.14c0,.32.02.62.06.89.04.27.12.5.23.7.11.2.27.35.47.47.2.11.45.17.75.17s.56-.06.76-.17c.19-.11.34-.27.46-.47s.19-.43.23-.7c.04-.27.06-.57.06-.89v-8.96h2.59v8.96c0,.82-.11,1.49-.34,2.02-.23.53-.53.96-.92,1.27-.38.31-.82.52-1.31.63-.49.11-1,.16-1.53.16s-1.04-.05-1.53-.14c-.49-.1-.93-.29-1.31-.58-.38-.29-.69-.71-.92-1.25-.23-.54-.34-1.24-.34-2.11v-8.96h2.59v8.96Z"/>
      <path class="cls-8" d="m393.19,24.4c0,.3.02.57.07.82.05.25.14.45.27.62.13.17.31.3.53.4.22.1.5.14.84.14.4,0,.75-.13,1.07-.39.32-.26.48-.66.48-1.2,0-.29-.04-.54-.12-.75s-.21-.4-.39-.57-.42-.32-.71-.46-.66-.28-1.09-.42c-.58-.19-1.07-.4-1.49-.63-.42-.23-.77-.49-1.05-.8-.28-.31-.49-.66-.62-1.06-.13-.4-.2-.87-.2-1.4,0-1.27.35-2.22,1.06-2.84.71-.62,1.68-.94,2.92-.94.58,0,1.11.06,1.59.19.49.13.91.33,1.26.61.35.28.63.64.83,1.08.2.44.3.96.3,1.57v.36h-2.48c0-.61-.11-1.08-.32-1.41-.22-.33-.58-.5-1.08-.5-.29,0-.53.04-.72.13-.19.08-.34.2-.46.33-.11.14-.19.3-.23.48-.04.18-.06.37-.06.56,0,.4.08.73.25,1,.17.27.53.52,1.08.75l2,.86c.49.22.89.44,1.21.67s.56.49.75.76c.19.27.32.57.39.89.07.32.11.68.11,1.08,0,1.36-.39,2.34-1.18,2.96-.79.62-1.88.93-3.29.93s-2.51-.32-3.14-.95c-.63-.64-.94-1.55-.94-2.74v-.52h2.59v.38Z"/>
      <path class="cls-8" d="m402.53,24.4c0,.3.02.57.07.82.05.25.14.45.27.62.13.17.31.3.53.4.22.1.5.14.84.14.4,0,.75-.13,1.07-.39.32-.26.48-.66.48-1.2,0-.29-.04-.54-.12-.75s-.21-.4-.39-.57-.42-.32-.71-.46-.66-.28-1.09-.42c-.58-.19-1.07-.4-1.49-.63-.42-.23-.77-.49-1.05-.8-.28-.31-.49-.66-.62-1.06-.13-.4-.2-.87-.2-1.4,0-1.27.35-2.22,1.06-2.84.71-.62,1.68-.94,2.92-.94.58,0,1.11.06,1.59.19.49.13.91.33,1.26.61.35.28.63.64.83,1.08.2.44.3.96.3,1.57v.36h-2.48c0-.61-.11-1.08-.32-1.41-.22-.33-.58-.5-1.08-.5-.29,0-.53.04-.72.13-.19.08-.34.2-.46.33-.11.14-.19.3-.23.48-.04.18-.06.37-.06.56,0,.4.08.73.25,1,.17.27.53.52,1.08.75l2,.86c.49.22.89.44,1.21.67s.56.49.75.76c.19.27.32.57.39.89.07.32.11.68.11,1.08,0,1.36-.39,2.34-1.18,2.96-.79.62-1.88.93-3.29.93s-2.51-.32-3.14-.95c-.63-.64-.94-1.55-.94-2.74v-.52h2.59v.38Z"/>
      <path class="cls-8" d="m414.75,23.89h-5.08v-2.12h5.08v2.12Z"/>
      <path class="cls-8" d="m422.15,15.18l3.4,12.85h-2.7l-.59-2.72h-3.42l-.59,2.72h-2.7l3.4-12.85h3.2Zm-.34,8.01l-1.24-5.78h-.04l-1.24,5.78h2.52Z"/>
      <path class="cls-8" d="m431.31,27.01c-.28.46-.58.77-.93.95-.34.18-.76.27-1.27.27-1.02,0-1.77-.39-2.25-1.17-.48-.78-.72-2.07-.72-3.87s.24-3.1.72-3.9c.48-.8,1.23-1.2,2.25-1.2.47,0,.87.1,1.2.29.33.19.63.48.89.86h.04v-4.07h2.48v12.85h-2.38v-1.03h-.04Zm-2.44-1.43c.16.53.51.8,1.05.8s.91-.27,1.07-.8.24-1.33.24-2.38-.08-1.85-.24-2.38c-.16-.53-.52-.8-1.07-.8s-.89.27-1.05.8c-.16.53-.24,1.33-.24,2.38s.08,1.85.24,2.38Z"/>
      <path class="cls-8" d="m437.76,18.35v.99h.04c.31-.44.66-.76,1.05-.95.39-.19.86-.29,1.4-.29.58,0,1.06.13,1.45.4.39.26.65.65.78,1.15h.04c.19-.52.5-.9.93-1.16s.93-.39,1.52-.39c.83,0,1.44.25,1.83.75.39.5.58,1.22.58,2.15v7.04h-2.48v-6.77c0-.41-.08-.72-.22-.94-.15-.22-.4-.32-.75-.32-.4,0-.71.13-.95.4-.23.26-.35.68-.35,1.26v6.37h-2.48v-6.77c0-.41-.08-.72-.22-.94-.15-.22-.4-.32-.75-.32-.4,0-.71.13-.95.4-.23.26-.35.68-.35,1.26v6.37h-2.48v-9.68h2.38Z"/>
      <path class="cls-8" d="m451.6,15.04v2.12h-2.48v-2.12h2.48Zm0,3.31v9.68h-2.48v-9.68h2.48Z"/>
      <path class="cls-8" d="m455.72,18.35v1.13h.04c.26-.48.61-.83,1.03-1.05.42-.22.9-.33,1.44-.33.79,0,1.4.22,1.83.65s.64,1.13.64,2.11v7.18h-2.48v-6.68c0-.5-.08-.86-.25-1.05-.17-.2-.44-.3-.81-.3-.88,0-1.31.53-1.31,1.6v6.43h-2.48v-9.68h2.38Z"/>
    </g>
  </g>
  <rect class="cls-7" x="272.85" y="390.43" width="3.3" height="46.13"/>
</svg>